<svg width="460" height="474" viewBox="0 0 460 474" fill="none" xmlns="http://www.w3.org/2000/svg">
<path d="M252 16C233 5 174 1.90735e-06 174 1.90735e-06H149C149 1.90735e-06 130 44 174 47C218 50 206 59.8265 198 71C190 82.1734 166 92 139 114C112 136 115 240 103 234C91 228 103 155 94 167C85 179 75 275 74 303C73 331 80 382 85 394C90 406 114 453 149 460C184 467 192 465 233 465C274 465 299 455 327 437C354.775 419.144 361.394 373.736 364.915 349.582L365 349C368.5 325 367.5 266.5 361.5 276.5C355.5 286.5 361.5 328.5 355 320.5C348.5 312.5 359 294 359 234C359 174 327 145 327 145C327 145 317 145 311 129C305 113 317 109 317 109L274 42C274 42 271 27 252 16Z" fill="#09B58C"/>
<path d="M74 62C74 47 125 83 125 83C125 83 139 109 125 98C111 87 111 98 111 98C111 98 74 77 74 62Z" fill="#09B58C"/>
<path d="M268 130C210.333 215.333 150.6 369.8 61 377C18.4651 380.418 21.0849 358.107 53 332C25 350.607 -15.6 404.6 74 411C163.6 417.4 274.333 263 350 182L268 130Z" fill="#CB1E5C"/>
<path d="M268 130C210.333 215.333 150.6 369.8 61 377C18.4651 380.418 21.0849 358.107 53 332C25 350.607 -15.6 404.6 74 411C163.6 417.4 274.333 263 350 182L268 130Z" fill="url(#paint0_linear)"/>
<path d="M288.511 144.336C288.511 144.336 225.975 104.722 218.534 75.6589C211.094 46.5962 233.341 65.3751 233.341 65.3751L308.491 117.544C308.491 117.544 348.048 78.5147 359.246 85.9703C370.445 93.4259 350.83 141.802 350.83 141.802L438.778 211.157C438.778 211.157 443.242 228.595 418.48 224.611C393.719 220.628 330.401 174.902 330.401 174.902L263.339 239.554C263.339 239.554 286.045 279.861 272.019 273.46C257.994 267.059 227.472 244.607 209.399 222.395C191.326 200.183 241.391 218.334 241.391 218.334L288.511 144.336Z" fill="#011456" stroke="#FFFDFD" stroke-width="7"/>
<defs>
<linearGradient id="paint0_linear" x1="184.552" y1="130" x2="200" y2="387" gradientUnits="userSpaceOnUse">
<stop stop-color="white"/>
<stop offset="1" stop-color="white" stop-opacity="0"/>
</linearGradient>
</defs>
</svg>
