<svg width="474" height="474" viewBox="0 0 474 474" fill="none" xmlns="http://www.w3.org/2000/svg">
<path d="M262 16C243 5 184 1.90735e-06 184 1.90735e-06H159C159 1.90735e-06 140 44 184 47C228 50 216 59.8265 208 71C200 82.1734 176 92 149 114C122 136 125 240 113 234C101 228 113 155 104 167C95 179 85 275 84 303C83 331 90 382 95 394C100 406 124 453 159 460C194 467 202 465 243 465C284 465 309 455 337 437C365 419 365 369 375 349C385 329 369 274 369 274C369 274 363 350 358 323C353 296 363 294 363 234C363 174 337 145 337 145C337 145 327 145 321 129C315 113 327 109 327 109L284 42C284 42 281 27 262 16Z" fill="#09B58C"/>
<path d="M84 62C84 47 135 83 135 83C135 83 149 109 135 98C121 87 121 98 121 98C121 98 84 77 84 62Z" fill="#09B58C"/>
<path d="M278 130C220.333 215.333 160.6 369.8 71 377C28.4651 380.418 31.0849 358.107 63 332C35 350.607 -5.6 404.6 84 411C173.6 417.4 284.333 263 360 182L278 130Z" fill="#CB1E5C"/>
<path d="M278 130C220.333 215.333 160.6 369.8 71 377C28.4651 380.418 31.0849 358.107 63 332C35 350.607 -5.6 404.6 84 411C173.6 417.4 284.333 263 360 182L278 130Z" fill="url(#paint0_linear)"/>
<path d="M298.657 143.997C298.657 143.997 236.885 103.199 230 74C223.115 44.8008 245 64 245 64L319.143 117.591C319.143 117.591 359.435 79.3214 370.49 86.9889C381.545 94.6563 361.012 142.65 361.012 142.65L447.623 213.668C447.623 213.668 451.754 231.187 427.073 226.733C402.392 222.278 339.956 175.356 339.956 175.356L271.676 238.718C271.676 238.718 293.61 279.451 279.709 272.784C265.807 266.117 235.719 243.087 218.072 220.535C200.425 197.984 250.136 217.084 250.136 217.084L298.657 143.997Z" fill="#011456" stroke="#FFFDFD" stroke-width="7"/>
<path d="M67.52 368.6C67.52 367.8 68.2933 367.4 69.84 367.4C71.44 367.4 73.0667 368.28 74.72 370.04C76.3733 371.747 77.2 373.72 77.2 375.96C77.2 384.173 71.0933 388.28 58.88 388.28C53.9733 388.28 49.44 387.853 45.28 387V425.32C45.28 430.92 44.2133 435.373 42.08 438.68C40 441.987 36.8267 443.64 32.56 443.64C28.3467 443.64 25.1733 442.653 23.04 440.68C20.9067 438.76 19.84 436.2 19.84 433C19.84 428.893 21.1733 426.84 23.84 426.84C24.48 426.84 25.04 427 25.52 427.32C26 427.64 26.4 428.093 26.72 428.68C26.2933 429.8 26.08 431.453 26.08 433.64C26.08 435.827 26.64 437.507 27.76 438.68C28.9333 439.8 30.4 440.36 32.16 440.36C35.84 440.36 37.76 436.947 37.92 430.12V385.24C34.4 384.227 30.9867 382.973 27.68 381.48C24.2133 385.64 18.96 387.72 11.92 387.72C9.04 387.72 6.69333 387.107 4.88 385.88C3.06667 384.6 2.16 382.68 2.16 380.12C2.16 375 5.36 372.44 11.76 372.44C16.3467 372.44 23.04 374.147 31.84 377.56C35.0933 378.787 39.1733 379.933 44.08 381C49.04 382.067 54.08 382.6 59.2 382.6C64.32 382.6 67.8133 382.04 69.68 380.92C71.5467 379.8 72.48 378.147 72.48 375.96C72.48 374.627 72.1067 373.48 71.36 372.52C70.6667 371.507 69.9467 370.84 69.2 370.52L68.16 370.04C67.7333 369.72 67.52 369.24 67.52 368.6ZM11.84 384.04C17.5467 384.04 21.52 382.627 23.76 379.8C18.0533 377.293 14.1867 376.04 12.16 376.04C10.1867 376.04 8.77333 376.413 7.92 377.16C7.01333 377.853 6.56 378.76 6.56 379.88C6.56 382.653 8.32 384.04 11.84 384.04ZM67.28 425.4V438.12C66.7467 438.867 65.8133 439.24 64.48 439.24C63.1467 439.24 62.08 438.84 61.28 438.04C60.48 437.187 60.08 435.96 60.08 434.36V403.96C60.6133 403.213 61.5467 402.84 62.88 402.84C64.2133 402.84 65.28 403.267 66.08 404.12C66.88 404.92 67.28 406.12 67.28 407.72V413.8C69.9467 407.187 73.6267 403.88 78.32 403.88C81.68 403.88 84.1333 404.787 85.68 406.6C87.2267 408.36 88 410.467 88 412.92C88 414.253 87.6 415.32 86.8 416.12C86 416.92 85.2267 417.32 84.48 417.32C83.0933 417.32 82.1867 417 81.76 416.36C82.08 415.56 82.24 414.413 82.24 412.92C82.24 411.427 81.7333 410.067 80.72 408.84C79.7067 407.613 78.48 407 77.04 407C74.5333 407 72.2667 409.293 70.24 413.88C68.2667 418.413 67.28 422.253 67.28 425.4ZM114.854 405.16C115.547 403.613 116.64 402.84 118.134 402.84C119.68 402.84 120.827 403.213 121.574 403.96V426.92C121.574 429.96 122.054 432.253 123.014 433.8C123.974 435.347 125.28 436.12 126.934 436.12C131.947 436.12 134.454 430.92 134.454 420.52C134.507 420.2 134.907 420.04 135.654 420.04C136.614 420.04 137.094 421.453 137.094 424.28C137.094 428.813 136.107 432.44 134.134 435.16C132.214 437.88 129.494 439.24 125.974 439.24C120.587 439.24 117.014 436.867 115.254 432.12C114.24 434.307 112.854 436.04 111.094 437.32C109.334 438.6 107.334 439.24 105.094 439.24C95.7604 439.24 91.0938 433.133 91.0938 420.92C91.0938 414.733 92.5338 410.173 95.4138 407.24C98.3471 404.307 102.214 402.84 107.014 402.84C110.694 402.84 113.307 403.613 114.854 405.16ZM99.8138 430.76C100.56 433.107 101.414 434.6 102.374 435.24C103.334 435.827 104.614 436.12 106.214 436.12C107.814 436.12 109.547 435.133 111.414 433.16C113.334 431.133 114.294 428.52 114.294 425.32V414.36C114.294 411.853 113.627 409.827 112.294 408.28C111.014 406.733 109.547 405.96 107.894 405.96C106.294 405.96 105.014 406.12 104.054 406.44C103.094 406.76 102.187 407.427 101.334 408.44C99.5738 410.36 98.6938 414.52 98.6938 420.92C98.6938 425.133 99.0671 428.413 99.8138 430.76ZM133.809 407.72C133.809 406.12 134.209 404.92 135.009 404.12C135.809 403.267 136.823 402.84 138.049 402.84C139.276 402.84 140.263 403.213 141.009 403.96V420.92C141.009 431.267 144.076 436.44 150.209 436.44C151.543 436.44 152.716 436.04 153.729 435.24C151.489 433.107 149.809 430.44 148.689 427.24C147.569 424.04 147.009 420.947 147.009 417.96C147.009 412.68 147.756 408.707 149.249 406.04C150.796 403.32 153.383 401.96 157.009 401.96C159.516 401.96 161.516 402.813 163.009 404.52C164.556 406.227 165.329 408.493 165.329 411.32C165.329 421.507 163.116 429.24 158.689 434.52C160.503 435.587 162.529 436.12 164.769 436.12C167.756 436.12 170.209 434.84 172.129 432.28C174.049 429.72 175.009 425.8 175.009 420.52C175.063 420.2 175.463 420.04 176.209 420.04C177.169 420.04 177.649 421.293 177.649 423.8C177.649 428.227 176.529 431.907 174.289 434.84C172.049 437.773 168.636 439.24 164.049 439.24C160.956 439.24 158.289 438.493 156.049 437C153.916 438.493 151.649 439.24 149.249 439.24C144.663 439.24 140.929 437.587 138.049 434.28C135.223 430.973 133.809 426.387 133.809 420.52V407.72ZM155.809 406.28C152.663 406.28 151.089 409.72 151.089 416.6C151.089 423.48 152.716 428.733 155.969 432.36C157.996 428.573 159.009 422.253 159.009 413.4C159.009 408.653 157.943 406.28 155.809 406.28ZM208.6 421C209.72 421 210.28 421.853 210.28 423.56C210.28 427.507 208.893 431.107 206.12 434.36C203.4 437.613 199.24 439.24 193.64 439.24C188.04 439.24 183.533 437.747 180.12 434.76C176.76 431.72 175.08 427.293 175.08 421.48C175.08 415.613 176.573 411.053 179.56 407.8C182.547 404.493 186.36 402.84 191 402.84C194.36 402.84 196.813 403.747 198.36 405.56C199.907 407.32 200.68 409.427 200.68 411.88C200.68 415.88 199 419.213 195.64 421.88C192.333 424.493 188.093 425.8 182.92 425.8C183.4 429.213 184.627 431.8 186.6 433.56C188.627 435.267 191.267 436.12 194.52 436.12C197.827 436.12 200.787 434.893 203.4 432.44C206.067 429.933 207.4 426.28 207.4 421.48C207.453 421.16 207.853 421 208.6 421ZM182.68 422.12V422.84C185.987 422.413 188.84 421.373 191.24 419.72C193.693 418.067 194.92 415.613 194.92 412.36C194.92 410.28 194.467 408.707 193.56 407.64C192.653 406.52 191.373 405.96 189.72 405.96C187.213 405.96 185.4 407.187 184.28 409.64C183.213 412.093 182.68 416.253 182.68 422.12ZM231.098 420.04C232.058 420.04 232.538 421.453 232.538 424.28C232.538 428.387 231.418 431.907 229.178 434.84C226.938 437.773 224.085 439.24 220.618 439.24C216.298 439.24 213.071 437.96 210.938 435.4C208.805 432.84 207.738 429.213 207.738 424.52V394.44C207.738 387.56 208.458 382.52 209.898 379.32C211.338 376.12 213.871 374.52 217.498 374.52C222.778 374.52 225.418 378.093 225.418 385.24C225.418 390.627 224.351 394.947 222.218 398.2C220.138 401.453 217.738 403.88 215.018 405.48V426.92C215.018 429.96 215.605 432.253 216.778 433.8C217.951 435.347 219.551 436.12 221.578 436.12C223.605 436.12 225.498 434.893 227.258 432.44C229.018 429.987 229.898 426.013 229.898 420.52C230.005 420.2 230.405 420.04 231.098 420.04ZM221.978 385.32C221.978 380.2 220.698 377.64 218.138 377.64C217.498 377.64 216.991 377.853 216.618 378.28C216.298 378.707 216.005 379.773 215.738 381.48C215.258 384.093 215.018 390.973 215.018 402.12C219.658 398.76 221.978 393.16 221.978 385.32ZM251.403 394.92C250.71 394.653 250.283 394.387 250.123 394.12C249.91 393.853 249.803 393.507 249.803 393.08C249.803 392.6 249.963 392.253 250.283 392.04C255.67 392.04 258.63 392.013 259.163 391.96C259.43 386.147 260.576 381.8 262.603 378.92C264.63 376.04 267.696 374.6 271.803 374.6C274.416 374.6 276.47 375.373 277.963 376.92C279.51 378.467 280.283 380.44 280.283 382.84C280.283 386.253 279.136 388.893 276.843 390.76C274.55 392.627 271.03 393.907 266.283 394.6V419.64C266.283 423.267 265.883 426.52 265.083 429.4C265.296 429.613 265.75 430.04 266.443 430.68C267.19 431.267 267.696 431.693 267.963 431.96C268.23 432.173 268.71 432.573 269.403 433.16C270.096 433.747 270.603 434.173 270.923 434.44C271.296 434.653 271.83 435 272.523 435.48C273.216 435.907 273.803 436.227 274.283 436.44C274.763 436.653 275.35 436.92 276.043 437.24C276.79 437.507 277.483 437.72 278.123 437.88C279.776 438.2 281.296 438.36 282.683 438.36C287.963 438.36 291.936 437.133 294.603 434.68C297.323 432.173 298.683 428.573 298.683 423.88C298.736 423.56 299.003 423.4 299.483 423.4C300.016 423.4 300.416 423.48 300.683 423.64C301.483 424.227 301.883 425.533 301.883 427.56C301.883 431.987 299.99 435.667 296.203 438.6C292.416 441.48 287.883 442.92 282.603 442.92C278.603 442.92 275.11 442.12 272.123 440.52C269.136 438.92 266.203 436.733 263.323 433.96C260.923 438.547 257.456 440.84 252.923 440.84C249.936 440.84 247.67 440.067 246.123 438.52C244.523 436.92 243.723 434.84 243.723 432.28C243.723 429.72 244.55 427.613 246.203 425.96C247.856 424.307 249.91 423.48 252.363 423.48C254.816 423.48 257.003 423.96 258.923 424.92C259.03 422.68 259.083 420.813 259.083 419.32V395.24C258.016 395.293 256.63 395.32 254.923 395.32C253.216 395.32 252.043 395.187 251.403 394.92ZM276.603 382.6C276.603 381.32 276.123 380.227 275.163 379.32C274.256 378.413 273.03 377.96 271.483 377.96C269.99 377.96 268.79 378.947 267.883 380.92C266.976 382.84 266.443 386.28 266.283 391.24C273.163 389.96 276.603 387.08 276.603 382.6ZM247.323 432.2C247.323 435.72 249.19 437.48 252.923 437.48C255.91 437.48 257.776 434.787 258.523 429.4C256.39 427.64 254.47 426.76 252.763 426.76C251.056 426.76 249.723 427.24 248.763 428.2C247.803 429.16 247.323 430.493 247.323 432.2ZM321.963 405.16C322.656 403.613 323.75 402.84 325.243 402.84C326.79 402.84 327.936 403.213 328.683 403.96V426.92C328.683 429.96 329.163 432.253 330.123 433.8C331.083 435.347 332.39 436.12 334.043 436.12C339.056 436.12 341.563 430.92 341.563 420.52C341.616 420.2 342.016 420.04 342.763 420.04C343.723 420.04 344.203 421.453 344.203 424.28C344.203 428.813 343.216 432.44 341.243 435.16C339.323 437.88 336.603 439.24 333.083 439.24C327.696 439.24 324.123 436.867 322.363 432.12C321.35 434.307 319.963 436.04 318.203 437.32C316.443 438.6 314.443 439.24 312.203 439.24C302.87 439.24 298.203 433.133 298.203 420.92C298.203 414.733 299.643 410.173 302.523 407.24C305.456 404.307 309.323 402.84 314.123 402.84C317.803 402.84 320.416 403.613 321.963 405.16ZM306.923 430.76C307.67 433.107 308.523 434.6 309.483 435.24C310.443 435.827 311.723 436.12 313.323 436.12C314.923 436.12 316.656 435.133 318.523 433.16C320.443 431.133 321.403 428.52 321.403 425.32V414.36C321.403 411.853 320.736 409.827 319.403 408.28C318.123 406.733 316.656 405.96 315.003 405.96C313.403 405.96 312.123 406.12 311.163 406.44C310.203 406.76 309.296 407.427 308.443 408.44C306.683 410.36 305.803 414.52 305.803 420.92C305.803 425.133 306.176 428.413 306.923 430.76ZM384.999 420.04C385.959 420.04 386.439 421.453 386.439 424.28C386.439 428.813 385.452 432.44 383.479 435.16C381.559 437.88 378.732 439.24 374.999 439.24C371.265 439.24 368.385 437.96 366.359 435.4C364.385 432.84 363.399 429.213 363.399 424.52V415.16C363.399 408.813 361.799 405.64 358.599 405.64C355.772 405.64 353.452 407.08 351.639 409.96C349.825 412.84 348.919 417.667 348.919 424.44V438.12C348.385 438.867 347.452 439.24 346.119 439.24C344.785 439.24 343.719 438.84 342.919 438.04C342.119 437.187 341.719 435.96 341.719 434.36V403.96C342.252 403.213 343.265 402.84 344.759 402.84C347.532 402.84 348.919 404.84 348.919 408.84C351.159 404.84 354.705 402.84 359.559 402.84C363.025 402.84 365.772 403.933 367.799 406.12C369.879 408.307 370.919 411.453 370.919 415.56V426.92C370.919 429.96 371.399 432.253 372.359 433.8C373.319 435.347 374.732 436.12 376.599 436.12C378.519 436.12 380.199 434.947 381.639 432.6C383.079 430.2 383.799 426.173 383.799 420.52C383.852 420.2 384.252 420.04 384.999 420.04ZM426.704 420.04C427.664 420.04 428.144 421.453 428.144 424.28C428.144 428.707 427.131 432.307 425.104 435.08C423.078 437.853 420.278 439.24 416.704 439.24C413.131 439.24 410.091 438.067 407.584 435.72C405.078 433.32 403.504 430.44 402.864 427.08C399.291 428.573 395.424 429.427 391.264 429.64V438.12C390.731 438.867 389.798 439.24 388.464 439.24C387.131 439.24 386.064 438.84 385.264 438.04C384.464 437.187 384.064 435.96 384.064 434.36V394.28C384.064 387.347 384.731 382.333 386.064 379.24C387.398 376.093 389.958 374.52 393.744 374.52C395.771 374.52 397.344 375.373 398.464 377.08C399.584 378.787 400.144 381.213 400.144 384.36C400.144 390.067 397.184 395.88 391.264 401.8V409.48C393.664 405.053 397.504 402.84 402.784 402.84C406.144 402.84 408.838 403.72 410.864 405.48C412.944 407.24 413.984 409.64 413.984 412.68C413.984 416.787 412.224 420.387 408.704 423.48C408.971 426.733 409.958 429.667 411.664 432.28C413.371 434.84 415.531 436.12 418.144 436.12C420.171 436.12 421.904 434.867 423.344 432.36C424.784 429.8 425.504 425.853 425.504 420.52C425.558 420.2 425.958 420.04 426.704 420.04ZM406.944 412.76C406.944 410.52 406.464 408.787 405.504 407.56C404.544 406.28 403.318 405.64 401.824 405.64C398.891 405.64 396.384 407.213 394.304 410.36C392.278 413.507 391.264 418.893 391.264 426.52C395.851 426.04 399.611 424.467 402.544 421.8C405.478 419.08 406.944 416.067 406.944 412.76ZM391.264 397.96C394.891 393.267 396.704 388.707 396.704 384.28C396.704 379.853 395.744 377.64 393.824 377.64C392.758 377.64 392.064 378.867 391.744 381.32C391.424 383.773 391.264 389.32 391.264 397.96ZM449.463 405.16C450.156 403.613 451.25 402.84 452.743 402.84C454.29 402.84 455.436 403.213 456.183 403.96V426.92C456.183 429.96 456.663 432.253 457.623 433.8C458.583 435.347 459.89 436.12 461.543 436.12C466.556 436.12 469.063 430.92 469.063 420.52C469.116 420.2 469.516 420.04 470.263 420.04C471.223 420.04 471.703 421.453 471.703 424.28C471.703 428.813 470.716 432.44 468.743 435.16C466.823 437.88 464.103 439.24 460.583 439.24C455.196 439.24 451.623 436.867 449.863 432.12C448.85 434.307 447.463 436.04 445.703 437.32C443.943 438.6 441.943 439.24 439.703 439.24C430.37 439.24 425.703 433.133 425.703 420.92C425.703 414.733 427.143 410.173 430.023 407.24C432.956 404.307 436.823 402.84 441.623 402.84C445.303 402.84 447.916 403.613 449.463 405.16ZM434.423 430.76C435.17 433.107 436.023 434.6 436.983 435.24C437.943 435.827 439.223 436.12 440.823 436.12C442.423 436.12 444.156 435.133 446.023 433.16C447.943 431.133 448.903 428.52 448.903 425.32V414.36C448.903 411.853 448.236 409.827 446.903 408.28C445.623 406.733 444.156 405.96 442.503 405.96C440.903 405.96 439.623 406.12 438.663 406.44C437.703 406.76 436.796 407.427 435.943 408.44C434.183 410.36 433.303 414.52 433.303 420.92C433.303 425.133 433.676 428.413 434.423 430.76Z" fill="#FDFDFD"/>
<path d="M74.72 370.04L73.2623 371.409L73.2728 371.421L73.2835 371.432L74.72 370.04ZM45.28 387L45.6819 385.041L43.28 384.548V387H45.28ZM42.08 438.68L40.3994 437.596L40.3932 437.605L40.3871 437.615L42.08 438.68ZM23.04 440.68L24.3981 439.212L24.3881 439.203L24.3779 439.193L23.04 440.68ZM25.52 427.32L26.6294 425.656L26.6294 425.656L25.52 427.32ZM26.72 428.68L28.589 429.392L28.9169 428.531L28.4758 427.722L26.72 428.68ZM27.76 438.68L26.3133 440.061L26.3454 440.095L26.379 440.127L27.76 438.68ZM37.92 430.12L39.9195 430.167L39.92 430.143V430.12H37.92ZM37.92 385.24H39.92V383.735L38.4733 383.318L37.92 385.24ZM27.68 381.48L28.5032 379.657L27.1172 379.031L26.1436 380.2L27.68 381.48ZM4.88 385.88L3.72663 387.514L3.74289 387.525L3.75938 387.537L4.88 385.88ZM31.84 377.56L31.1167 379.425L31.1256 379.428L31.1344 379.431L31.84 377.56ZM44.08 381L43.6551 382.954L43.6595 382.955L44.08 381ZM69.68 380.92L70.709 382.635L70.709 382.635L69.68 380.92ZM71.36 372.52L69.7094 373.649L69.7438 373.7L69.7813 373.748L71.36 372.52ZM69.2 370.52L68.3619 372.336L68.3869 372.347L68.4122 372.358L69.2 370.52ZM68.16 370.04L66.96 371.64L67.1295 371.767L67.3219 371.856L68.16 370.04ZM23.76 379.8L25.3275 381.042L26.937 379.011L24.5643 377.969L23.76 379.8ZM7.92 377.16L9.1349 378.749L9.18733 378.709L9.23701 378.665L7.92 377.16ZM69.52 368.6C69.52 368.736 69.4822 368.947 69.3461 369.158C69.2161 369.36 69.0679 369.451 69.0188 369.476C68.979 369.497 69.0106 369.473 69.1648 369.446C69.314 369.42 69.534 369.4 69.84 369.4V365.4C68.9592 365.4 67.9942 365.503 67.1812 365.924C66.7454 366.149 66.3072 366.49 65.9839 366.992C65.6545 367.503 65.52 368.064 65.52 368.6H69.52ZM69.84 369.4C70.6595 369.4 71.7954 369.848 73.2623 371.409L76.1777 368.671C74.338 366.712 72.2205 365.4 69.84 365.4V369.4ZM73.2835 371.432C74.5997 372.79 75.2 374.273 75.2 375.96H79.2C79.2 373.167 78.147 370.703 76.1565 368.648L73.2835 371.432ZM75.2 375.96C75.2 379.491 73.9335 381.907 71.5039 383.54C68.9334 385.269 64.8254 386.28 58.88 386.28V390.28C65.1479 390.28 70.1999 389.238 73.7361 386.86C77.4132 384.387 79.2 380.642 79.2 375.96H75.2ZM58.88 386.28C54.088 386.28 49.6911 385.863 45.6819 385.041L44.8781 388.959C49.1889 389.843 53.8587 390.28 58.88 390.28V386.28ZM43.28 387V425.32H47.28V387H43.28ZM43.28 425.32C43.28 430.691 42.2536 434.722 40.3994 437.596L43.7606 439.764C46.1731 436.025 47.28 431.149 47.28 425.32H43.28ZM40.3871 437.615C38.7118 440.278 36.2149 441.64 32.56 441.64V445.64C37.4384 445.64 41.2882 443.695 43.7729 439.745L40.3871 437.615ZM32.56 441.64C28.6259 441.64 26.0249 440.717 24.3981 439.212L21.6819 442.148C24.3218 444.59 28.0674 445.64 32.56 445.64V441.64ZM24.3779 439.193C22.7171 437.699 21.84 435.706 21.84 433H17.84C17.84 436.694 19.0962 439.821 21.7021 442.167L24.3779 439.193ZM21.84 433C21.84 431.099 22.1602 430.019 22.5174 429.469C22.7777 429.068 23.1121 428.84 23.84 428.84V424.84C21.9012 424.84 20.2356 425.638 19.1626 427.291C18.1865 428.794 17.84 430.794 17.84 433H21.84ZM23.84 428.84C24.13 428.84 24.2946 428.907 24.4106 428.984L26.6294 425.656C25.7854 425.093 24.83 424.84 23.84 424.84V428.84ZM24.4106 428.984C24.5813 429.098 24.7746 429.29 24.9642 429.638L28.4758 427.722C28.0254 426.897 27.4187 426.182 26.6294 425.656L24.4106 428.984ZM24.851 427.968C24.2935 429.431 24.08 431.377 24.08 433.64H28.08C28.08 431.53 28.2932 430.169 28.589 429.392L24.851 427.968ZM24.08 433.64C24.08 436.158 24.7293 438.401 26.3133 440.061L29.2067 437.299C28.5507 436.612 28.08 435.495 28.08 433.64H24.08ZM26.379 440.127C27.9577 441.634 29.9336 442.36 32.16 442.36V438.36C30.8664 438.36 29.909 437.966 29.141 437.233L26.379 440.127ZM32.16 442.36C34.7779 442.36 36.8169 441.067 38.1032 438.781C39.3024 436.649 39.8367 433.697 39.9195 430.167L35.9205 430.073C35.8433 433.369 35.3376 435.538 34.6168 436.819C33.9831 437.946 33.2221 438.36 32.16 438.36V442.36ZM39.92 430.12V385.24H35.92V430.12H39.92ZM38.4733 383.318C35.0446 382.331 31.7215 381.111 28.5032 379.657L26.8568 383.303C30.2518 384.836 33.7554 386.122 37.3667 387.162L38.4733 383.318ZM26.1436 380.2C23.1644 383.775 18.5577 385.72 11.92 385.72V389.72C19.3623 389.72 25.2623 387.505 29.2164 382.76L26.1436 380.2ZM11.92 385.72C9.31516 385.72 7.39327 385.166 6.00062 384.223L3.75938 387.537C5.9934 389.048 8.76484 389.72 11.92 389.72V385.72ZM6.03337 384.246C4.8382 383.402 4.16 382.145 4.16 380.12H0.16C0.16 383.215 1.29513 385.798 3.72663 387.514L6.03337 384.246ZM4.16 380.12C4.16 378.001 4.79995 376.729 5.80939 375.922C6.90405 375.046 8.77368 374.44 11.76 374.44V370.44C8.34632 370.44 5.41595 371.114 3.31061 372.798C1.12005 374.551 0.16 377.119 0.16 380.12H4.16ZM11.76 374.44C15.9543 374.44 22.3557 376.026 31.1167 379.425L32.5633 375.695C23.7243 372.267 16.739 370.44 11.76 370.44V374.44ZM31.1344 379.431C34.5095 380.704 38.691 381.875 43.6551 382.954L44.5049 379.046C39.6557 377.991 35.6772 376.869 32.5456 375.689L31.1344 379.431ZM43.6595 382.955C48.759 384.052 53.94 384.6 59.2 384.6V380.6C54.22 380.6 49.321 380.081 44.5005 379.045L43.6595 382.955ZM59.2 384.6C61.8235 384.6 64.0903 384.457 65.9766 384.155C67.8373 383.857 69.4627 383.383 70.709 382.635L68.651 379.205C68.0307 379.577 66.9761 379.943 65.3434 380.205C63.7364 380.463 61.6965 380.6 59.2 380.6V384.6ZM70.709 382.635C73.1814 381.152 74.48 378.845 74.48 375.96H70.48C70.48 377.448 69.9119 378.448 68.651 379.205L70.709 382.635ZM74.48 375.96C74.48 374.227 73.9851 372.637 72.9387 371.292L69.7813 373.748C70.2283 374.323 70.48 375.026 70.48 375.96H74.48ZM73.0106 371.391C72.2049 370.213 71.2191 369.209 69.9878 368.682L68.4122 372.358C68.6742 372.471 69.1284 372.8 69.7094 373.649L73.0106 371.391ZM70.0381 368.704L68.9981 368.224L67.3219 371.856L68.3619 372.336L70.0381 368.704ZM69.36 368.44C69.3826 368.457 69.4122 368.484 69.4417 368.521C69.4714 368.558 69.4932 368.595 69.5076 368.628C69.5366 368.693 69.52 368.7 69.52 368.6H65.52C65.52 369.728 65.9263 370.865 66.96 371.64L69.36 368.44ZM11.84 386.04C17.8004 386.04 22.5312 384.571 25.3275 381.042L22.1925 378.558C20.5088 380.682 17.293 382.04 11.84 382.04V386.04ZM24.5643 377.969C21.6783 376.701 19.2178 375.733 17.1967 375.077C15.2224 374.438 13.5014 374.04 12.16 374.04V378.04C12.8452 378.04 14.0709 378.269 15.9633 378.883C17.8089 379.481 20.1351 380.392 22.9557 381.631L24.5643 377.969ZM12.16 374.04C10.0287 374.04 8.00824 374.425 6.60299 375.655L9.23701 378.665C9.53842 378.401 10.3447 378.04 12.16 378.04V374.04ZM6.7051 375.571C5.31469 376.635 4.56 378.123 4.56 379.88H8.56C8.56 379.397 8.71198 379.072 9.1349 378.749L6.7051 375.571ZM4.56 379.88C4.56 381.719 5.16742 383.409 6.64226 384.571C8.02626 385.661 9.87159 386.04 11.84 386.04V382.04C10.2884 382.04 9.49374 381.725 9.11774 381.429C8.83258 381.204 8.56 380.815 8.56 379.88H4.56ZM67.28 438.12L68.9075 439.282L69.28 438.761V438.12H67.28ZM61.28 438.04L59.8209 439.408L59.843 439.431L59.8658 439.454L61.28 438.04ZM60.08 403.96L58.4525 402.798L58.08 403.319V403.96H60.08ZM66.08 404.12L64.6209 405.488L64.643 405.511L64.6658 405.534L66.08 404.12ZM67.28 413.8H65.28L69.1349 414.548L67.28 413.8ZM85.68 406.6L84.1583 407.898L84.1679 407.909L84.1777 407.92L85.68 406.6ZM81.76 416.36L79.903 415.617L79.5123 416.594L80.0959 417.469L81.76 416.36ZM80.72 408.84L79.1781 410.114L79.1781 410.114L80.72 408.84ZM70.24 413.88L68.4106 413.072L68.4062 413.082L70.24 413.88ZM65.28 425.4V438.12H69.28V425.4H65.28ZM65.6525 436.958C65.6444 436.969 65.4774 437.24 64.48 437.24V441.24C66.1493 441.24 67.849 440.764 68.9075 439.282L65.6525 436.958ZM64.48 437.24C63.5752 437.24 63.0527 436.984 62.6942 436.626L59.8658 439.454C61.1073 440.696 62.7182 441.24 64.48 441.24V437.24ZM62.7391 436.672C62.3975 436.308 62.08 435.641 62.08 434.36H58.08C58.08 436.279 58.5625 438.066 59.8209 439.408L62.7391 436.672ZM62.08 434.36V403.96H58.08V434.36H62.08ZM61.7075 405.122C61.7156 405.111 61.8826 404.84 62.88 404.84V400.84C61.2107 400.84 59.511 401.316 58.4525 402.798L61.7075 405.122ZM62.88 404.84C63.7455 404.84 64.2535 405.096 64.6209 405.488L67.5391 402.752C66.3065 401.437 64.6812 400.84 62.88 400.84V404.84ZM64.6658 405.534C64.9584 405.827 65.28 406.428 65.28 407.72H69.28C69.28 405.812 68.8016 404.013 67.4942 402.706L64.6658 405.534ZM65.28 407.72V413.8H69.28V407.72H65.28ZM69.1349 414.548C71.6793 408.238 74.8404 405.88 78.32 405.88V401.88C72.413 401.88 68.214 406.136 65.4251 413.052L69.1349 414.548ZM78.32 405.88C81.3437 405.88 83.1281 406.69 84.1583 407.898L87.2017 405.302C85.1386 402.883 82.0163 401.88 78.32 401.88V405.88ZM84.1777 407.92C85.3875 409.297 86 410.928 86 412.92H90C90 410.006 89.0659 407.423 87.1823 405.28L84.1777 407.92ZM86 412.92C86 413.825 85.7443 414.347 85.3858 414.706L88.2142 417.534C89.4557 416.293 90 414.682 90 412.92H86ZM85.3858 414.706C85.0902 415.001 84.8598 415.162 84.7012 415.244C84.5513 415.321 84.4844 415.32 84.48 415.32V419.32C85.9762 419.32 87.2293 418.519 88.2142 417.534L85.3858 414.706ZM84.48 415.32C83.9219 415.32 83.5932 415.253 83.4256 415.194C83.2768 415.141 83.3429 415.129 83.4241 415.251L80.0959 417.469C81.1115 418.993 82.9482 419.32 84.48 419.32V415.32ZM83.617 417.103C84.0765 415.954 84.24 414.509 84.24 412.92H80.24C80.24 414.318 80.0835 415.166 79.903 415.617L83.617 417.103ZM84.24 412.92C84.24 410.93 83.5505 409.126 82.2619 407.566L79.1781 410.114C79.9162 411.007 80.24 411.923 80.24 412.92H84.24ZM82.2619 407.566C80.9138 405.934 79.144 405 77.04 405V409C77.816 409 78.4995 409.292 79.1781 410.114L82.2619 407.566ZM77.04 405C75.1107 405 73.4338 405.901 72.0375 407.314C70.6656 408.702 69.4737 410.666 68.4106 413.072L72.0694 414.688C73.033 412.508 73.9877 411.031 74.8825 410.126C75.7528 409.245 76.4627 409 77.04 409V405ZM68.4062 413.082C66.3791 417.739 65.28 421.867 65.28 425.4H69.28C69.28 422.64 70.1543 419.088 72.0738 414.678L68.4062 413.082ZM114.854 405.16L113.44 406.574L115.492 408.626L116.679 405.978L114.854 405.16ZM121.574 403.96H123.574V403.132L122.988 402.546L121.574 403.96ZM123.014 433.8L124.713 432.745L124.713 432.745L123.014 433.8ZM134.454 420.52L132.481 420.191L132.454 420.354V420.52H134.454ZM134.134 435.16L132.515 433.986L132.507 433.996L132.5 434.007L134.134 435.16ZM115.254 432.12L117.129 431.425L115.459 426.921L113.439 431.279L115.254 432.12ZM111.094 437.32L109.917 435.703L109.917 435.703L111.094 437.32ZM95.4138 407.24L93.9995 405.826L93.993 405.832L93.9866 405.839L95.4138 407.24ZM99.8138 430.76L101.72 430.154L101.72 430.154L99.8138 430.76ZM102.374 435.24L101.264 436.904L101.297 436.926L101.331 436.947L102.374 435.24ZM111.414 433.16L109.962 431.785L109.961 431.786L111.414 433.16ZM112.294 408.28L110.753 409.555L110.766 409.571L110.779 409.586L112.294 408.28ZM104.054 406.44L104.686 408.337L104.686 408.337L104.054 406.44ZM101.334 408.44L102.808 409.791L102.836 409.76L102.864 409.728L101.334 408.44ZM116.679 405.978C116.917 405.446 117.162 405.185 117.349 405.053C117.519 404.932 117.751 404.84 118.134 404.84V400.84C117.023 400.84 115.962 401.134 115.039 401.787C114.132 402.429 113.483 403.327 113.029 404.342L116.679 405.978ZM118.134 404.84C119.396 404.84 119.932 405.147 120.16 405.374L122.988 402.546C121.722 401.28 119.965 400.84 118.134 400.84V404.84ZM119.574 403.96V426.92H123.574V403.96H119.574ZM119.574 426.92C119.574 430.11 120.067 432.844 121.314 434.855L124.713 432.745C124.041 431.662 123.574 429.81 123.574 426.92H119.574ZM121.314 434.855C122.595 436.918 124.509 438.12 126.934 438.12V434.12C126.052 434.12 125.352 433.775 124.713 432.745L121.314 434.855ZM126.934 438.12C128.552 438.12 130.055 437.694 131.361 436.79C132.652 435.898 133.637 434.62 134.375 433.088C135.826 430.08 136.454 425.817 136.454 420.52H132.454C132.454 425.623 131.829 429.16 130.772 431.352C130.257 432.42 129.676 433.092 129.086 433.5C128.513 433.896 127.822 434.12 126.934 434.12V438.12ZM136.427 420.849C136.373 421.168 136.224 421.46 136.013 421.683C135.819 421.888 135.627 421.981 135.537 422.017C135.388 422.077 135.376 422.04 135.654 422.04V418.04C135.185 418.04 134.6 418.083 134.051 418.303C133.442 418.546 132.659 419.12 132.481 420.191L136.427 420.849ZM135.654 422.04C135.341 422.04 135.056 421.902 134.883 421.732C134.758 421.61 134.776 421.555 134.84 421.743C134.972 422.132 135.094 422.926 135.094 424.28H139.094C139.094 422.807 138.975 421.481 138.628 420.457C138.292 419.468 137.44 418.04 135.654 418.04V422.04ZM135.094 424.28C135.094 428.537 134.167 431.708 132.515 433.986L135.753 436.334C138.047 433.172 139.094 429.09 139.094 424.28H135.094ZM132.5 434.007C130.979 436.161 128.888 437.24 125.974 437.24V441.24C130.1 441.24 133.448 439.599 135.768 436.313L132.5 434.007ZM125.974 437.24C123.573 437.24 121.744 436.713 120.36 435.794C118.986 434.881 117.889 433.475 117.129 431.425L113.379 432.815C114.378 435.512 115.948 437.665 118.147 439.126C120.337 440.58 122.987 441.24 125.974 441.24V437.24ZM113.439 431.279C112.553 433.191 111.373 434.644 109.917 435.703L112.27 438.937C114.334 437.436 115.928 435.423 117.068 432.961L113.439 431.279ZM109.917 435.703C108.51 436.726 106.924 437.24 105.094 437.24V441.24C107.743 441.24 110.158 440.474 112.27 438.937L109.917 435.703ZM105.094 437.24C100.901 437.24 98.0556 435.896 96.1829 433.446C94.2323 430.893 93.0938 426.828 93.0938 420.92H89.0938C89.0938 427.225 90.2885 432.32 93.0046 435.874C95.7985 439.53 99.953 441.24 105.094 441.24V437.24ZM93.0938 420.92C93.0938 414.997 94.4771 411.049 96.8409 408.641L93.9866 405.839C90.5904 409.298 89.0938 414.47 89.0938 420.92H93.0938ZM96.828 408.654C99.3269 406.155 102.654 404.84 107.014 404.84V400.84C101.774 400.84 97.3672 402.458 93.9995 405.826L96.828 408.654ZM107.014 404.84C110.504 404.84 112.455 405.589 113.44 406.574L116.268 403.746C114.159 401.637 110.883 400.84 107.014 400.84V404.84ZM97.9079 431.366C98.3073 432.622 98.7579 433.723 99.2773 434.632C99.7886 435.527 100.431 436.348 101.264 436.904L103.483 433.576C103.357 433.492 103.092 433.246 102.75 432.648C102.416 432.063 102.067 431.245 101.72 430.154L97.9079 431.366ZM101.331 436.947C102.711 437.79 104.393 438.12 106.214 438.12V434.12C104.834 434.12 103.957 433.864 103.417 433.533L101.331 436.947ZM106.214 438.12C108.643 438.12 110.872 436.644 112.867 434.534L109.961 431.786C108.223 433.623 106.984 434.12 106.214 434.12V438.12ZM112.866 434.535C115.189 432.083 116.294 428.951 116.294 425.32H112.294C112.294 428.089 111.478 430.184 109.962 431.785L112.866 434.535ZM116.294 425.32V414.36H112.294V425.32H116.294ZM116.294 414.36C116.294 411.487 115.522 408.961 113.809 406.974L110.779 409.586C111.732 410.692 112.294 412.219 112.294 414.36H116.294ZM113.835 407.005C112.264 405.107 110.271 403.96 107.894 403.96V407.96C108.824 407.96 109.763 408.359 110.753 409.555L113.835 407.005ZM107.894 403.96C106.189 403.96 104.668 404.127 103.421 404.543L104.686 408.337C105.359 408.113 106.399 407.96 107.894 407.96V403.96ZM103.421 404.543C102.019 405.01 100.823 405.942 99.8039 407.152L102.864 409.728C103.551 408.912 104.168 408.51 104.686 408.337L103.421 404.543ZM99.8594 407.089C98.63 408.43 97.8691 410.354 97.3971 412.586C96.9177 414.852 96.6938 417.643 96.6938 420.92H100.694C100.694 417.797 100.91 415.308 101.31 413.414C101.718 411.485 102.278 410.37 102.808 409.791L99.8594 407.089ZM96.6938 420.92C96.6938 425.215 97.0699 428.733 97.9079 431.366L101.72 430.154C101.064 428.094 100.694 425.052 100.694 420.92H96.6938ZM135.009 404.12L136.424 405.534L136.446 405.511L136.468 405.488L135.009 404.12ZM141.009 403.96H143.009V403.132L142.424 402.546L141.009 403.96ZM153.729 435.24L154.969 436.81L156.778 435.381L155.109 433.792L153.729 435.24ZM148.689 427.24L150.577 426.579L150.577 426.579L148.689 427.24ZM149.249 406.04L147.511 405.051L147.504 405.063L149.249 406.04ZM163.009 404.52L161.504 405.837L161.516 405.85L161.527 405.863L163.009 404.52ZM158.689 434.52L157.157 433.235L155.639 435.046L157.675 436.244L158.689 434.52ZM172.129 432.28L170.529 431.08L170.529 431.08L172.129 432.28ZM175.009 420.52L173.037 420.191L173.009 420.354V420.52H175.009ZM174.289 434.84L172.7 433.626L172.7 433.626L174.289 434.84ZM156.049 437L157.159 435.336L156.022 434.578L154.902 435.362L156.049 437ZM138.049 434.28L136.529 435.58L136.535 435.587L136.541 435.594L138.049 434.28ZM155.969 432.36L154.481 433.696L156.386 435.82L157.733 433.304L155.969 432.36ZM135.809 407.72C135.809 406.428 136.131 405.827 136.424 405.534L133.595 402.706C132.288 404.013 131.809 405.812 131.809 407.72H135.809ZM136.468 405.488C136.87 405.059 137.345 404.84 138.049 404.84V400.84C136.3 400.84 134.749 401.474 133.55 402.752L136.468 405.488ZM138.049 404.84C138.838 404.84 139.284 405.063 139.595 405.374L142.424 402.546C141.241 401.363 139.714 400.84 138.049 400.84V404.84ZM139.009 403.96V420.92H143.009V403.96H139.009ZM139.009 420.92C139.009 426.226 139.784 430.535 141.589 433.58C143.491 436.789 146.454 438.44 150.209 438.44V434.44C147.832 434.44 146.194 433.505 145.03 431.54C143.768 429.412 143.009 425.961 143.009 420.92H139.009ZM150.209 438.44C151.977 438.44 153.59 437.898 154.969 436.81L152.49 433.67C151.842 434.182 151.109 434.44 150.209 434.44V438.44ZM155.109 433.792C153.12 431.897 151.603 429.509 150.577 426.579L146.802 427.901C148.016 431.371 149.859 434.316 152.35 436.688L155.109 433.792ZM150.577 426.579C149.521 423.563 149.009 420.694 149.009 417.96H145.009C145.009 421.2 145.617 424.517 146.802 427.901L150.577 426.579ZM149.009 417.96C149.009 412.805 149.749 409.241 150.994 407.017L147.504 405.063C145.763 408.173 145.009 412.555 145.009 417.96H149.009ZM150.988 407.029C152.116 405.044 153.965 403.96 157.009 403.96V399.96C152.8 399.96 149.476 401.596 147.511 405.051L150.988 407.029ZM157.009 403.96C159.007 403.96 160.433 404.613 161.504 405.837L164.515 403.203C162.599 401.014 160.025 399.96 157.009 399.96V403.96ZM161.527 405.863C162.669 407.123 163.329 408.872 163.329 411.32H167.329C167.329 408.115 166.443 405.331 164.491 403.177L161.527 405.863ZM163.329 411.32C163.329 421.255 161.166 428.453 157.157 433.235L160.222 435.805C165.066 430.027 167.329 421.759 167.329 411.32H163.329ZM157.675 436.244C159.816 437.503 162.197 438.12 164.769 438.12V434.12C162.862 434.12 161.189 433.67 159.703 432.796L157.675 436.244ZM164.769 438.12C168.436 438.12 171.463 436.502 173.729 433.48L170.529 431.08C168.956 433.178 167.076 434.12 164.769 434.12V438.12ZM173.729 433.48C176.03 430.413 177.009 425.976 177.009 420.52H173.009C173.009 425.624 172.069 429.027 170.529 431.08L173.729 433.48ZM176.982 420.849C176.929 421.168 176.779 421.46 176.568 421.683C176.375 421.888 176.183 421.981 176.092 422.017C175.943 422.077 175.932 422.04 176.209 422.04V418.04C175.74 418.04 175.155 418.083 174.607 418.303C173.998 418.546 173.215 419.12 173.037 420.191L176.982 420.849ZM176.209 422.04C175.97 422.04 175.713 421.946 175.526 421.784C175.379 421.656 175.374 421.571 175.422 421.695C175.528 421.974 175.649 422.617 175.649 423.8H179.649C179.649 422.477 179.531 421.24 179.157 420.265C178.965 419.763 178.659 419.208 178.152 418.766C177.606 418.291 176.929 418.04 176.209 418.04V422.04ZM175.649 423.8C175.649 427.878 174.624 431.107 172.7 433.626L175.879 436.054C178.435 432.706 179.649 428.575 179.649 423.8H175.649ZM172.7 433.626C170.929 435.944 168.18 437.24 164.049 437.24V441.24C169.092 441.24 173.169 439.602 175.879 436.054L172.7 433.626ZM164.049 437.24C161.29 437.24 159.023 436.579 157.159 435.336L154.94 438.664C157.555 440.408 160.622 441.24 164.049 441.24V437.24ZM154.902 435.362C153.075 436.641 151.204 437.24 149.249 437.24V441.24C152.095 441.24 154.757 440.346 157.196 438.638L154.902 435.362ZM149.249 437.24C145.211 437.24 142.038 435.815 139.558 432.966L136.541 435.594C139.821 439.359 144.115 441.24 149.249 441.24V437.24ZM139.57 432.98C137.146 430.145 135.809 426.077 135.809 420.52H131.809C131.809 426.696 133.299 431.801 136.529 435.58L139.57 432.98ZM135.809 420.52V407.72H131.809V420.52H135.809ZM155.809 404.28C154.634 404.28 153.526 404.61 152.566 405.309C151.629 405.992 150.946 406.946 150.451 408.028C149.483 410.143 149.089 413.07 149.089 416.6H153.089C153.089 413.25 153.482 411.017 154.088 409.692C154.38 409.054 154.68 408.718 154.922 408.541C155.143 408.38 155.411 408.28 155.809 408.28V404.28ZM149.089 416.6C149.089 423.771 150.784 429.575 154.481 433.696L157.458 431.024C154.648 427.892 153.089 423.189 153.089 416.6H149.089ZM157.733 433.304C160.008 429.053 161.009 422.303 161.009 413.4H157.009C157.009 422.203 155.984 428.094 154.206 431.416L157.733 433.304ZM161.009 413.4C161.009 410.939 160.742 408.817 160.034 407.24C159.668 406.428 159.147 405.672 158.401 405.119C157.631 404.548 156.739 404.28 155.809 404.28V408.28C155.946 408.28 155.988 408.309 156.018 408.331C156.072 408.371 156.217 408.506 156.385 408.88C156.743 409.676 157.009 411.114 157.009 413.4H161.009ZM206.12 434.36L204.598 433.063L204.592 433.07L204.586 433.077L206.12 434.36ZM180.12 434.76L178.778 436.243L178.79 436.254L178.803 436.265L180.12 434.76ZM179.56 407.8L181.033 409.153L181.039 409.147L181.044 409.141L179.56 407.8ZM198.36 405.56L196.838 406.858L196.848 406.869L196.858 406.88L198.36 405.56ZM195.64 421.88L196.88 423.449L196.883 423.447L195.64 421.88ZM182.92 425.8V423.8H180.619L180.939 426.079L182.92 425.8ZM186.6 433.56L185.269 435.053L185.29 435.072L185.312 435.09L186.6 433.56ZM203.4 432.44L204.769 433.898L204.77 433.897L203.4 432.44ZM207.4 421.48L205.427 421.151L205.4 421.314V421.48H207.4ZM182.68 422.84H180.68V425.115L182.936 424.824L182.68 422.84ZM191.24 419.72L190.122 418.061L190.114 418.067L190.105 418.073L191.24 419.72ZM193.56 407.64L192.006 408.898L192.021 408.917L192.036 408.935L193.56 407.64ZM184.28 409.64L182.461 408.809L182.453 408.826L182.446 408.843L184.28 409.64ZM208.6 423C208.624 423 208.548 423.004 208.429 422.943C208.303 422.879 208.223 422.79 208.188 422.737C208.162 422.698 208.189 422.721 208.221 422.867C208.253 423.012 208.28 423.236 208.28 423.56H212.28C212.28 422.552 212.126 421.448 211.532 420.543C210.842 419.491 209.756 419 208.6 419V423ZM208.28 423.56C208.28 426.99 207.09 430.139 204.598 433.063L207.642 435.657C210.696 432.075 212.28 428.023 212.28 423.56H208.28ZM204.586 433.077C202.359 435.741 198.85 437.24 193.64 437.24V441.24C199.63 441.24 204.441 439.486 207.654 435.643L204.586 433.077ZM193.64 437.24C188.406 437.24 184.406 435.852 181.437 433.255L178.803 436.265C182.661 439.641 187.674 441.24 193.64 441.24V437.24ZM181.462 433.277C178.632 430.717 177.08 426.898 177.08 421.48H173.08C173.08 427.688 174.888 432.723 178.778 436.243L181.462 433.277ZM177.08 421.48C177.08 415.946 178.484 411.929 181.033 409.153L178.087 406.447C174.663 410.177 173.08 415.28 173.08 421.48H177.08ZM181.044 409.141C183.634 406.273 186.899 404.84 191 404.84V400.84C185.821 400.84 181.459 402.714 178.076 406.459L181.044 409.141ZM191 404.84C194.024 404.84 195.808 405.65 196.838 406.858L199.882 404.262C197.819 401.843 194.696 400.84 191 400.84V404.84ZM196.858 406.88C198.067 408.257 198.68 409.888 198.68 411.88H202.68C202.68 408.966 201.746 406.383 199.862 404.24L196.858 406.88ZM198.68 411.88C198.68 415.221 197.318 417.995 194.397 420.313L196.883 423.447C200.682 420.432 202.68 416.539 202.68 411.88H198.68ZM194.4 420.311C191.521 422.586 187.748 423.8 182.92 423.8V427.8C188.438 427.8 193.146 426.4 196.88 423.449L194.4 420.311ZM180.939 426.079C181.465 429.816 182.847 432.892 185.269 435.053L187.931 432.067C186.407 430.708 185.335 428.611 184.901 425.521L180.939 426.079ZM185.312 435.09C187.776 437.165 190.907 438.12 194.52 438.12V434.12C191.627 434.12 189.477 433.368 187.888 432.03L185.312 435.09ZM194.52 438.12C198.38 438.12 201.819 436.668 204.769 433.898L202.031 430.982C199.755 433.119 197.273 434.12 194.52 434.12V438.12ZM204.77 433.897C207.953 430.905 209.4 426.651 209.4 421.48H205.4C205.4 425.909 204.18 428.962 202.03 430.983L204.77 433.897ZM209.373 421.809C209.32 422.128 209.17 422.42 208.959 422.643C208.766 422.848 208.573 422.941 208.483 422.977C208.334 423.037 208.322 423 208.6 423V419C208.131 419 207.546 419.043 206.997 419.263C206.389 419.506 205.606 420.08 205.427 421.151L209.373 421.809ZM180.68 422.12V422.84H184.68V422.12H180.68ZM182.936 424.824C186.512 424.362 189.677 423.225 192.375 421.367L190.105 418.073C188.003 419.521 185.461 420.465 182.424 420.856L182.936 424.824ZM192.358 421.379C195.424 419.312 196.92 416.2 196.92 412.36H192.92C192.92 415.026 191.962 416.821 190.122 418.061L192.358 421.379ZM196.92 412.36C196.92 410.029 196.417 407.913 195.084 406.345L192.036 408.935C192.516 409.5 192.92 410.531 192.92 412.36H196.92ZM195.114 406.382C193.769 404.72 191.877 403.96 189.72 403.96V407.96C190.87 407.96 191.537 408.32 192.006 408.898L195.114 406.382ZM189.72 403.96C188.127 403.96 186.643 404.355 185.359 405.223C184.085 406.086 183.138 407.326 182.461 408.809L186.099 410.471C186.542 409.501 187.062 408.901 187.601 408.537C188.13 408.178 188.806 407.96 189.72 407.96V403.96ZM182.446 408.843C181.201 411.705 180.68 416.229 180.68 422.12H184.68C184.68 416.277 185.225 412.482 186.114 410.437L182.446 408.843ZM229.178 434.84L230.768 436.054L230.768 436.054L229.178 434.84ZM210.938 435.4L212.475 434.12L212.475 434.12L210.938 435.4ZM209.898 379.32L211.722 380.141L211.722 380.141L209.898 379.32ZM222.218 398.2L220.546 397.103L220.539 397.113L220.533 397.123L222.218 398.2ZM215.018 405.48L214.004 403.756L213.018 404.336V405.48H215.018ZM216.778 433.8L215.185 435.009L215.185 435.009L216.778 433.8ZM227.258 432.44L225.633 431.274L225.633 431.274L227.258 432.44ZM229.898 420.52L228.001 419.888L227.898 420.195V420.52H229.898ZM216.618 378.28L215.113 376.963L215.063 377.02L215.018 377.08L216.618 378.28ZM215.738 381.48L217.705 381.841L217.71 381.815L217.714 381.789L215.738 381.48ZM215.018 402.12H213.018V406.038L216.191 403.74L215.018 402.12ZM231.098 422.04C230.785 422.04 230.5 421.902 230.327 421.732C230.203 421.61 230.221 421.555 230.284 421.743C230.417 422.132 230.538 422.926 230.538 424.28H234.538C234.538 422.807 234.42 421.481 234.072 420.457C233.736 419.468 232.885 418.04 231.098 418.04V422.04ZM230.538 424.28C230.538 428 229.532 431.081 227.589 433.626L230.768 436.054C233.304 432.733 234.538 428.773 234.538 424.28H230.538ZM227.589 433.626C225.699 436.101 223.416 437.24 220.618 437.24V441.24C224.754 441.24 228.178 439.445 230.768 436.054L227.589 433.626ZM220.618 437.24C216.703 437.24 214.121 436.096 212.475 434.12L209.402 436.68C212.021 439.824 215.894 441.24 220.618 441.24V437.24ZM212.475 434.12C210.743 432.041 209.738 428.934 209.738 424.52H205.738C205.738 429.493 206.867 433.639 209.402 436.68L212.475 434.12ZM209.738 424.52V394.44H205.738V424.52H209.738ZM209.738 394.44C209.738 387.623 210.463 382.938 211.722 380.141L208.074 378.499C206.453 382.102 205.738 387.497 205.738 394.44H209.738ZM211.722 380.141C212.309 378.836 213.065 377.967 213.946 377.411C214.832 376.852 215.983 376.52 217.498 376.52V372.52C215.387 372.52 213.458 372.988 211.81 374.029C210.158 375.073 208.927 376.604 208.074 378.499L211.722 380.141ZM217.498 376.52C219.639 376.52 220.96 377.212 221.83 378.388C222.782 379.678 223.418 381.854 223.418 385.24H227.418C227.418 381.479 226.734 378.295 225.047 376.012C223.276 373.615 220.637 372.52 217.498 372.52V376.52ZM223.418 385.24C223.418 390.382 222.398 394.279 220.546 397.103L223.891 399.297C226.305 395.615 227.418 390.872 227.418 385.24H223.418ZM220.533 397.123C218.585 400.169 216.399 402.348 214.004 403.756L216.032 407.204C219.078 405.412 221.691 402.738 223.903 399.277L220.533 397.123ZM213.018 405.48V426.92H217.018V405.48H213.018ZM213.018 426.92C213.018 430.165 213.636 432.967 215.185 435.009L218.372 432.591C217.574 431.54 217.018 429.755 217.018 426.92H213.018ZM215.185 435.009C216.755 437.079 218.958 438.12 221.578 438.12V434.12C220.145 434.12 219.148 433.614 218.372 432.591L215.185 435.009ZM221.578 438.12C224.521 438.12 226.94 436.314 228.883 433.606L225.633 431.274C224.056 433.473 222.689 434.12 221.578 434.12V438.12ZM228.883 433.606C231.017 430.632 231.898 426.133 231.898 420.52H227.898C227.898 425.894 227.019 429.342 225.633 431.274L228.883 433.606ZM231.795 421.152C231.715 421.395 231.575 421.604 231.409 421.762C231.251 421.911 231.102 421.984 231.021 422.017C230.885 422.071 230.87 422.04 231.098 422.04V418.04C230.633 418.04 230.072 418.089 229.535 418.303C228.952 418.536 228.289 419.022 228.001 419.888L231.795 421.152ZM223.978 385.32C223.978 382.658 223.656 380.363 222.807 378.666C222.368 377.788 221.759 377.01 220.928 376.456C220.084 375.893 219.128 375.64 218.138 375.64V379.64C218.428 379.64 218.593 379.707 218.709 379.784C218.837 379.87 219.028 380.052 219.229 380.454C219.66 381.317 219.978 382.862 219.978 385.32H223.978ZM218.138 375.64C217.004 375.64 215.917 376.044 215.113 376.963L218.123 379.597C218.123 379.597 218.123 379.598 218.122 379.599C218.121 379.6 218.119 379.601 218.117 379.603C218.113 379.607 218.107 379.612 218.099 379.617C218.084 379.629 218.068 379.638 218.054 379.643C218.041 379.649 218.038 379.648 218.049 379.646C218.061 379.644 218.089 379.64 218.138 379.64V375.64ZM215.018 377.08C214.619 377.613 214.387 378.298 214.23 378.87C214.055 379.504 213.901 380.28 213.762 381.171L217.714 381.789C217.842 380.974 217.968 380.362 218.087 379.93C218.223 379.435 218.298 379.374 218.218 379.48L215.018 377.08ZM213.771 381.119C213.25 383.953 213.018 391.048 213.018 402.12H217.018C217.018 390.899 217.266 384.233 217.705 381.841L213.771 381.119ZM216.191 403.74C221.528 399.875 223.978 393.546 223.978 385.32H219.978C219.978 392.774 217.789 397.645 213.845 400.5L216.191 403.74ZM251.403 394.92L252.172 393.074L252.147 393.063L252.121 393.053L251.403 394.92ZM250.123 394.12L251.838 393.091L251.769 392.976L251.685 392.871L250.123 394.12ZM250.283 392.04V390.04H249.678L249.174 390.376L250.283 392.04ZM259.163 391.96L259.362 393.95L261.082 393.778L261.161 392.052L259.163 391.96ZM262.603 378.92L264.239 380.071L264.239 380.071L262.603 378.92ZM277.963 376.92L276.524 378.309L276.537 378.322L276.549 378.334L277.963 376.92ZM276.843 390.76L275.581 389.209L275.581 389.209L276.843 390.76ZM266.283 394.6L265.994 392.621L264.283 392.871V394.6H266.283ZM265.083 429.4L263.156 428.865L262.844 429.989L263.669 430.814L265.083 429.4ZM266.443 430.68L265.087 432.15L265.145 432.204L265.207 432.253L266.443 430.68ZM267.963 431.96L266.549 433.374L266.627 433.453L266.714 433.522L267.963 431.96ZM269.403 433.16L268.111 434.687L268.111 434.687L269.403 433.16ZM270.923 434.44L269.643 435.976L269.778 436.089L269.931 436.176L270.923 434.44ZM272.523 435.48L271.385 437.124L271.429 437.155L271.475 437.183L272.523 435.48ZM276.043 437.24L275.205 439.056L275.286 439.093L275.37 439.123L276.043 437.24ZM278.123 437.88L277.638 439.82L277.69 439.833L277.743 439.844L278.123 437.88ZM294.603 434.68L295.957 436.152L295.958 436.151L294.603 434.68ZM298.683 423.88L296.71 423.551L296.683 423.714V423.88H298.683ZM300.683 423.64L301.866 422.027L301.791 421.973L301.712 421.925L300.683 423.64ZM296.203 438.6L297.414 440.192L297.421 440.187L297.428 440.181L296.203 438.6ZM272.123 440.52L273.068 438.757L273.068 438.757L272.123 440.52ZM263.323 433.96L264.71 432.519L262.788 430.668L261.551 433.033L263.323 433.96ZM246.123 438.52L247.537 437.106L247.537 437.106L246.123 438.52ZM258.923 424.92L258.029 426.709L260.775 428.082L260.921 425.015L258.923 424.92ZM259.083 395.24H261.083V393.137L258.983 393.242L259.083 395.24ZM275.163 379.32L273.749 380.734L273.769 380.754L273.79 380.774L275.163 379.32ZM267.883 380.92L269.692 381.774L269.696 381.765L269.7 381.755L267.883 380.92ZM266.283 391.24L264.284 391.176L264.204 393.661L266.649 393.206L266.283 391.24ZM258.523 429.4L260.504 429.675L260.658 428.568L259.796 427.857L258.523 429.4ZM252.121 393.053C251.987 393.002 251.879 392.955 251.793 392.914C251.707 392.873 251.652 392.842 251.623 392.824C251.592 392.805 251.603 392.808 251.638 392.84C251.672 392.871 251.754 392.951 251.838 393.091L248.408 395.149C248.721 395.671 249.169 396.007 249.503 396.216C249.863 396.441 250.27 396.627 250.685 396.787L252.121 393.053ZM251.685 392.871C251.745 392.946 251.779 393.02 251.795 393.072C251.809 393.119 251.803 393.128 251.803 393.08H247.803C247.803 393.845 248 394.667 248.561 395.369L251.685 392.871ZM251.803 393.08C251.803 393.057 251.807 393.15 251.739 393.298C251.663 393.463 251.537 393.608 251.393 393.704L249.174 390.376C248.157 391.054 247.803 392.119 247.803 393.08H251.803ZM250.283 394.04C252.978 394.04 255.072 394.033 256.561 394.02C257.989 394.007 258.981 393.988 259.362 393.95L258.964 389.97C258.968 389.97 258.954 389.971 258.915 389.973C258.879 389.975 258.83 389.978 258.768 389.98C258.642 389.986 258.474 389.991 258.262 389.996C257.839 390.005 257.261 390.013 256.525 390.02C255.054 390.033 252.974 390.04 250.283 390.04V394.04ZM261.161 392.052C261.42 386.396 262.532 382.497 264.239 380.071L260.968 377.769C258.621 381.103 257.439 385.897 257.165 391.868L261.161 392.052ZM264.239 380.071C265.825 377.817 268.223 376.6 271.803 376.6V372.6C267.17 372.6 263.435 374.263 260.968 377.769L264.239 380.071ZM271.803 376.6C273.999 376.6 275.487 377.235 276.524 378.309L279.402 375.531C277.453 373.512 274.834 372.6 271.803 372.6V376.6ZM276.549 378.334C277.682 379.468 278.283 380.914 278.283 382.84H282.283C282.283 379.966 281.337 377.466 279.377 375.506L276.549 378.334ZM278.283 382.84C278.283 385.756 277.332 387.783 275.581 389.209L278.106 392.311C280.941 390.003 282.283 386.751 282.283 382.84H278.283ZM275.581 389.209C273.691 390.747 270.583 391.951 265.994 392.621L266.572 396.579C271.476 395.863 275.409 394.506 278.106 392.311L275.581 389.209ZM264.283 394.6V419.64H268.283V394.6H264.283ZM264.283 419.64C264.283 423.123 263.899 426.191 263.156 428.865L267.01 429.935C267.868 426.849 268.283 423.411 268.283 419.64H264.283ZM263.669 430.814C263.916 431.061 264.399 431.515 265.087 432.15L267.8 429.21C267.101 428.565 266.677 428.166 266.497 427.986L263.669 430.814ZM265.207 432.253C265.957 432.842 266.377 433.202 266.549 433.374L269.377 430.546C269.016 430.185 268.422 429.691 267.679 429.107L265.207 432.253ZM266.714 433.522C266.956 433.716 267.416 434.099 268.111 434.687L270.695 431.633C270.003 431.048 269.504 430.631 269.213 430.398L266.714 433.522ZM268.111 434.687C268.805 435.274 269.317 435.705 269.643 435.976L272.203 432.904C271.89 432.642 271.388 432.22 270.695 431.633L268.111 434.687ZM269.931 436.176C270.227 436.346 270.703 436.652 271.385 437.124L273.662 433.836C272.957 433.348 272.366 432.961 271.915 432.704L269.931 436.176ZM271.475 437.183C272.208 437.634 272.878 438.004 273.471 438.268L275.095 434.612C274.728 434.449 274.225 434.179 273.571 433.777L271.475 437.183ZM273.471 438.268C273.939 438.476 274.517 438.738 275.205 439.056L276.881 435.424C276.183 435.102 275.587 434.831 275.095 434.612L273.471 438.268ZM275.37 439.123C276.167 439.408 276.924 439.642 277.638 439.82L278.608 435.94C278.043 435.798 277.413 435.605 276.716 435.357L275.37 439.123ZM277.743 439.844C279.496 440.183 281.145 440.36 282.683 440.36V436.36C281.448 436.36 280.057 436.217 278.503 435.916L277.743 439.844ZM282.683 440.36C288.238 440.36 292.783 439.072 295.957 436.152L293.249 433.208C291.09 435.195 287.688 436.36 282.683 436.36V440.36ZM295.958 436.151C299.194 433.169 300.683 428.972 300.683 423.88H296.683C296.683 428.175 295.452 431.178 293.248 433.209L295.958 436.151ZM300.656 424.209C300.629 424.373 300.563 424.576 300.427 424.779C300.29 424.985 300.119 425.135 299.952 425.235C299.649 425.417 299.425 425.4 299.483 425.4V421.4C299.062 421.4 298.464 421.463 297.894 421.805C297.234 422.201 296.829 422.842 296.71 423.551L300.656 424.209ZM299.483 425.4C299.656 425.4 299.752 425.413 299.791 425.421C299.808 425.425 299.803 425.425 299.781 425.417C299.758 425.409 299.713 425.39 299.654 425.355L301.712 421.925C300.985 421.489 300.151 421.4 299.483 421.4V425.4ZM299.5 425.253C299.443 425.211 299.55 425.252 299.671 425.645C299.792 426.041 299.883 426.659 299.883 427.56H303.883C303.883 426.434 303.774 425.385 303.496 424.475C303.216 423.562 302.723 422.656 301.866 422.027L299.5 425.253ZM299.883 427.56C299.883 431.312 298.322 434.429 294.978 437.019L297.428 440.181C301.657 436.905 303.883 432.661 303.883 427.56H299.883ZM294.992 437.008C291.592 439.594 287.496 440.92 282.603 440.92V444.92C288.27 444.92 293.241 443.366 297.414 440.192L294.992 437.008ZM282.603 440.92C278.873 440.92 275.715 440.176 273.068 438.757L271.179 442.283C274.504 444.064 278.333 444.92 282.603 444.92V440.92ZM273.068 438.757C270.269 437.258 267.481 435.188 264.71 432.519L261.936 435.401C264.925 438.279 268.004 440.582 271.179 442.283L273.068 438.757ZM261.551 433.033C260.47 435.099 259.21 436.532 257.82 437.452C256.443 438.363 254.834 438.84 252.923 438.84V442.84C255.545 442.84 257.936 442.171 260.027 440.788C262.103 439.414 263.776 437.408 265.095 434.887L261.551 433.033ZM252.923 438.84C250.268 438.84 248.589 438.157 247.537 437.106L244.709 439.934C246.751 441.976 249.605 442.84 252.923 442.84V438.84ZM247.537 437.106C246.363 435.931 245.723 434.386 245.723 432.28H241.723C241.723 435.294 242.683 437.909 244.709 439.934L247.537 437.106ZM245.723 432.28C245.723 430.195 246.376 428.615 247.617 427.374L244.789 424.546C242.723 426.612 241.723 429.245 241.723 432.28H245.723ZM247.617 427.374C248.876 426.116 250.411 425.48 252.363 425.48V421.48C249.408 421.48 246.837 422.497 244.789 424.546L247.617 427.374ZM252.363 425.48C254.551 425.48 256.424 425.906 258.029 426.709L259.818 423.131C257.583 422.014 255.082 421.48 252.363 421.48V425.48ZM260.921 425.015C261.028 422.757 261.083 420.857 261.083 419.32H257.083C257.083 420.77 257.031 422.603 256.925 424.825L260.921 425.015ZM261.083 419.32V395.24H257.083V419.32H261.083ZM258.983 393.242C257.963 393.293 256.614 393.32 254.923 393.32V397.32C256.646 397.32 258.07 397.293 259.183 397.238L258.983 393.242ZM254.923 393.32C253.203 393.32 252.402 393.169 252.172 393.074L250.634 396.766C251.684 397.204 253.229 397.32 254.923 397.32V393.32ZM278.603 382.6C278.603 380.75 277.882 379.137 276.536 377.866L273.79 380.774C274.364 381.316 274.603 381.89 274.603 382.6H278.603ZM276.577 377.906C275.22 376.549 273.443 375.96 271.483 375.96V379.96C272.616 379.96 273.293 380.278 273.749 380.734L276.577 377.906ZM271.483 375.96C268.87 375.96 267.128 377.772 266.066 380.085L269.7 381.755C270.451 380.121 271.11 379.96 271.483 379.96V375.96ZM266.075 380.066C264.974 382.396 264.444 386.213 264.284 391.176L268.282 391.304C268.442 386.347 268.979 383.283 269.692 381.774L266.075 380.066ZM266.649 393.206C270.255 392.535 273.215 391.405 275.307 389.654C277.48 387.834 278.603 385.433 278.603 382.6H274.603C274.603 384.247 274.006 385.526 272.739 386.586C271.391 387.715 269.191 388.665 265.917 389.274L266.649 393.206ZM245.323 432.2C245.323 434.299 245.885 436.233 247.351 437.615C248.795 438.976 250.777 439.48 252.923 439.48V435.48C251.336 435.48 250.518 435.104 250.095 434.705C249.694 434.327 249.323 433.621 249.323 432.2H245.323ZM252.923 439.48C255.144 439.48 256.943 438.424 258.207 436.599C259.4 434.878 260.113 432.498 260.504 429.675L256.542 429.125C256.187 431.688 255.593 433.348 254.919 434.321C254.317 435.19 253.689 435.48 252.923 435.48V439.48ZM259.796 427.857C257.511 425.973 255.146 424.76 252.763 424.76V428.76C253.794 428.76 255.268 429.307 257.25 430.943L259.796 427.857ZM252.763 424.76C250.67 424.76 248.775 425.36 247.349 426.786L250.177 429.614C250.672 429.12 251.443 428.76 252.763 428.76V424.76ZM247.349 426.786C245.923 428.212 245.323 430.107 245.323 432.2H249.323C249.323 430.88 249.683 430.108 250.177 429.614L247.349 426.786ZM321.963 405.16L320.549 406.574L322.601 408.626L323.788 405.978L321.963 405.16ZM328.683 403.96H330.683V403.132L330.097 402.546L328.683 403.96ZM330.123 433.8L331.822 432.745L331.822 432.745L330.123 433.8ZM341.563 420.52L339.59 420.191L339.563 420.354V420.52H341.563ZM341.243 435.16L339.624 433.986L339.617 433.996L339.609 434.007L341.243 435.16ZM322.363 432.12L324.238 431.425L322.568 426.921L320.549 431.279L322.363 432.12ZM318.203 437.32L317.027 435.703L317.027 435.703L318.203 437.32ZM302.523 407.24L301.109 405.826L301.102 405.832L301.096 405.839L302.523 407.24ZM306.923 430.76L308.829 430.154L308.829 430.154L306.923 430.76ZM309.483 435.24L308.374 436.904L308.407 436.926L308.44 436.947L309.483 435.24ZM318.523 433.16L317.071 431.785L317.07 431.786L318.523 433.16ZM319.403 408.28L317.862 409.555L317.875 409.571L317.888 409.586L319.403 408.28ZM311.163 406.44L311.796 408.337L311.796 408.337L311.163 406.44ZM308.443 408.44L309.917 409.791L309.946 409.76L309.973 409.728L308.443 408.44ZM323.788 405.978C324.027 405.446 324.272 405.185 324.458 405.053C324.629 404.932 324.86 404.84 325.243 404.84V400.84C324.132 400.84 323.071 401.134 322.148 401.787C321.241 402.429 320.593 403.327 320.138 404.342L323.788 405.978ZM325.243 404.84C326.505 404.84 327.041 405.147 327.269 405.374L330.097 402.546C328.832 401.28 327.074 400.84 325.243 400.84V404.84ZM326.683 403.96V426.92H330.683V403.96H326.683ZM326.683 426.92C326.683 430.11 327.176 432.844 328.424 434.855L331.822 432.745C331.15 431.662 330.683 429.81 330.683 426.92H326.683ZM328.424 434.855C329.705 436.918 331.618 438.12 334.043 438.12V434.12C333.161 434.12 332.462 433.775 331.822 432.745L328.424 434.855ZM334.043 438.12C335.662 438.12 337.164 437.694 338.471 436.79C339.761 435.898 340.747 434.62 341.485 433.088C342.935 430.08 343.563 425.817 343.563 420.52H339.563C339.563 425.623 338.938 429.16 337.882 431.352C337.366 432.42 336.785 433.092 336.196 433.5C335.622 433.896 334.931 434.12 334.043 434.12V438.12ZM343.536 420.849C343.483 421.168 343.333 421.46 343.122 421.683C342.929 421.888 342.737 421.981 342.646 422.017C342.497 422.077 342.485 422.04 342.763 422.04V418.04C342.294 418.04 341.709 418.083 341.16 418.303C340.552 418.546 339.769 419.12 339.59 420.191L343.536 420.849ZM342.763 422.04C342.45 422.04 342.165 421.902 341.992 421.732C341.868 421.61 341.886 421.555 341.949 421.743C342.082 422.132 342.203 422.926 342.203 424.28H346.203C346.203 422.807 346.085 421.481 345.737 420.457C345.401 419.468 344.55 418.04 342.763 418.04V422.04ZM342.203 424.28C342.203 428.537 341.276 431.708 339.624 433.986L342.862 436.334C345.156 433.172 346.203 429.09 346.203 424.28H342.203ZM339.609 434.007C338.089 436.161 335.997 437.24 333.083 437.24V441.24C337.209 441.24 340.558 439.599 342.877 436.313L339.609 434.007ZM333.083 437.24C330.683 437.24 328.854 436.713 327.47 435.794C326.096 434.881 324.999 433.475 324.238 431.425L320.488 432.815C321.488 435.512 323.057 437.665 325.257 439.126C327.446 440.58 330.097 441.24 333.083 441.24V437.24ZM320.549 431.279C319.663 433.191 318.483 434.644 317.027 435.703L319.379 438.937C321.444 437.436 323.037 435.423 324.178 432.961L320.549 431.279ZM317.027 435.703C315.619 436.726 314.034 437.24 312.203 437.24V441.24C314.853 441.24 317.267 440.474 319.379 438.937L317.027 435.703ZM312.203 437.24C308.011 437.24 305.165 435.896 303.292 433.446C301.342 430.893 300.203 426.828 300.203 420.92H296.203C296.203 427.225 297.398 432.32 300.114 435.874C302.908 439.53 307.062 441.24 312.203 441.24V437.24ZM300.203 420.92C300.203 414.997 301.587 411.049 303.95 408.641L301.096 405.839C297.7 409.298 296.203 414.47 296.203 420.92H300.203ZM303.937 408.654C306.436 406.155 309.763 404.84 314.123 404.84V400.84C308.883 400.84 304.477 402.458 301.109 405.826L303.937 408.654ZM314.123 404.84C317.614 404.84 319.564 405.589 320.549 406.574L323.377 403.746C321.269 401.637 317.993 400.84 314.123 400.84V404.84ZM305.017 431.366C305.417 432.622 305.867 433.723 306.387 434.632C306.898 435.527 307.54 436.348 308.374 436.904L310.593 433.576C310.466 433.492 310.202 433.246 309.86 432.648C309.526 432.063 309.176 431.245 308.829 430.154L305.017 431.366ZM308.44 436.947C309.82 437.79 311.503 438.12 313.323 438.12V434.12C311.944 434.12 311.066 433.864 310.526 433.533L308.44 436.947ZM313.323 438.12C315.753 438.12 317.981 436.644 319.976 434.534L317.07 431.786C315.332 433.623 314.094 434.12 313.323 434.12V438.12ZM319.975 434.535C322.299 432.083 323.403 428.951 323.403 425.32H319.403C319.403 428.089 318.588 430.184 317.071 431.785L319.975 434.535ZM323.403 425.32V414.36H319.403V425.32H323.403ZM323.403 414.36C323.403 411.487 322.631 408.961 320.918 406.974L317.888 409.586C318.842 410.692 319.403 412.219 319.403 414.36H323.403ZM320.944 407.005C319.374 405.107 317.38 403.96 315.003 403.96V407.96C315.933 407.96 316.873 408.359 317.862 409.555L320.944 407.005ZM315.003 403.96C313.298 403.96 311.778 404.127 310.531 404.543L311.796 408.337C312.469 408.113 313.508 407.96 315.003 407.96V403.96ZM310.531 404.543C309.129 405.01 307.932 405.942 306.913 407.152L309.973 409.728C310.661 408.912 311.278 408.51 311.796 408.337L310.531 404.543ZM306.969 407.089C305.739 408.43 304.978 410.354 304.506 412.586C304.027 414.852 303.803 417.643 303.803 420.92H307.803C307.803 417.797 308.019 415.308 308.42 413.414C308.828 411.485 309.387 410.37 309.917 409.791L306.969 407.089ZM303.803 420.92C303.803 425.215 304.179 428.733 305.017 431.366L308.829 430.154C308.174 428.094 307.803 425.052 307.803 420.92H303.803ZM383.479 435.16L381.86 433.986L381.852 433.996L381.845 434.007L383.479 435.16ZM366.359 435.4L364.775 436.621L364.783 436.631L364.791 436.641L366.359 435.4ZM351.639 409.96L353.331 411.026L353.331 411.026L351.639 409.96ZM348.919 438.12L350.546 439.282L350.919 438.761V438.12H348.919ZM342.919 438.04L341.46 439.408L341.482 439.431L341.505 439.454L342.919 438.04ZM341.719 403.96L340.091 402.798L339.719 403.319V403.96H341.719ZM348.919 408.84H346.919V416.505L350.664 409.817L348.919 408.84ZM367.799 406.12L366.332 407.48L366.341 407.489L366.35 407.498L367.799 406.12ZM372.359 433.8L374.058 432.745L374.058 432.745L372.359 433.8ZM381.639 432.6L383.343 433.646L383.349 433.638L383.354 433.629L381.639 432.6ZM383.799 420.52L381.826 420.191L381.799 420.354V420.52H383.799ZM384.999 422.04C384.686 422.04 384.401 421.902 384.228 421.732C384.103 421.61 384.121 421.555 384.185 421.743C384.317 422.132 384.439 422.926 384.439 424.28H388.439C388.439 422.807 388.32 421.481 387.973 420.457C387.637 419.468 386.785 418.04 384.999 418.04V422.04ZM384.439 424.28C384.439 428.537 383.512 431.708 381.86 433.986L385.098 436.334C387.392 433.172 388.439 429.09 388.439 424.28H384.439ZM381.845 434.007C380.349 436.125 378.174 437.24 374.999 437.24V441.24C379.29 441.24 382.768 439.635 385.113 436.313L381.845 434.007ZM374.999 437.24C371.778 437.24 369.517 436.167 367.927 434.159L364.791 436.641C367.254 439.753 370.753 441.24 374.999 441.24V437.24ZM367.943 434.179C366.337 432.096 365.399 428.964 365.399 424.52H361.399C361.399 429.462 362.434 433.584 364.775 436.621L367.943 434.179ZM365.399 424.52V415.16H361.399V424.52H365.399ZM365.399 415.16C365.399 411.883 364.996 409.126 363.985 407.12C363.464 406.088 362.753 405.196 361.802 404.567C360.838 403.93 359.745 403.64 358.599 403.64V407.64C359.052 407.64 359.359 407.747 359.596 407.903C359.844 408.068 360.133 408.366 360.413 408.92C361.001 410.087 361.399 412.09 361.399 415.16H365.399ZM358.599 403.64C354.937 403.64 352.039 405.57 349.946 408.894L353.331 411.026C354.865 408.59 356.608 407.64 358.599 407.64V403.64ZM349.946 408.894C347.815 412.28 346.919 417.597 346.919 424.44H350.919C350.919 417.736 351.836 413.4 353.331 411.026L349.946 408.894ZM346.919 424.44V438.12H350.919V424.44H346.919ZM347.291 436.958C347.283 436.969 347.116 437.24 346.119 437.24V441.24C347.788 441.24 349.488 440.764 350.546 439.282L347.291 436.958ZM346.119 437.24C345.214 437.24 344.691 436.984 344.333 436.626L341.505 439.454C342.746 440.696 344.357 441.24 346.119 441.24V437.24ZM344.378 436.672C344.036 436.308 343.719 435.641 343.719 434.36H339.719C339.719 436.279 340.201 438.066 341.46 439.408L344.378 436.672ZM343.719 434.36V403.96H339.719V434.36H343.719ZM343.346 405.122C343.349 405.119 343.356 405.108 343.382 405.09C343.409 405.07 343.466 405.035 343.57 404.997C343.788 404.916 344.164 404.84 344.759 404.84V400.84C343.029 400.84 341.187 401.263 340.091 402.798L343.346 405.122ZM344.759 404.84C345.596 404.84 345.972 405.1 346.235 405.48C346.59 405.992 346.919 407.009 346.919 408.84H350.919C350.919 406.671 350.554 404.688 349.522 403.2C348.399 401.58 346.695 400.84 344.759 400.84V404.84ZM350.664 409.817C352.525 406.493 355.377 404.84 359.559 404.84V400.84C354.034 400.84 349.792 403.187 347.174 407.863L350.664 409.817ZM359.559 404.84C362.568 404.84 364.746 405.769 366.332 407.48L369.266 404.76C366.798 402.098 363.483 400.84 359.559 400.84V404.84ZM366.35 407.498C367.965 409.196 368.919 411.778 368.919 415.56H372.919C372.919 411.129 371.793 407.417 369.248 404.742L366.35 407.498ZM368.919 415.56V426.92H372.919V415.56H368.919ZM368.919 426.92C368.919 430.11 369.412 432.844 370.659 434.855L374.058 432.745C373.386 431.662 372.919 429.81 372.919 426.92H368.919ZM370.659 434.855C371.995 437.007 374.062 438.12 376.599 438.12V434.12C375.402 434.12 374.642 433.686 374.058 432.745L370.659 434.855ZM376.599 438.12C379.491 438.12 381.712 436.304 383.343 433.646L379.934 431.554C378.685 433.59 377.547 434.12 376.599 434.12V438.12ZM383.354 433.629C385.09 430.734 385.799 426.235 385.799 420.52H381.799C381.799 426.112 381.067 429.666 379.924 431.571L383.354 433.629ZM385.772 420.849C385.718 421.168 385.569 421.46 385.358 421.683C385.164 421.888 384.972 421.981 384.882 422.017C384.733 422.077 384.721 422.04 384.999 422.04V418.04C384.53 418.04 383.945 418.083 383.396 418.303C382.787 418.546 382.004 419.12 381.826 420.191L385.772 420.849ZM425.104 435.08L423.49 433.9L423.49 433.9L425.104 435.08ZM407.584 435.72L406.201 437.165L406.209 437.172L406.218 437.18L407.584 435.72ZM402.864 427.08L404.829 426.706L404.368 424.284L402.093 425.235L402.864 427.08ZM391.264 429.64L391.162 427.643L389.264 427.74V429.64H391.264ZM391.264 438.12L392.892 439.282L393.264 438.761V438.12H391.264ZM385.264 438.04L383.805 439.408L383.827 439.431L383.85 439.454L385.264 438.04ZM386.064 379.24L387.901 380.032L387.906 380.02L386.064 379.24ZM391.264 401.8L389.85 400.386L389.264 400.972V401.8H391.264ZM391.264 409.48H389.264L393.023 410.433L391.264 409.48ZM410.864 405.48L409.553 406.99L409.563 406.998L409.572 407.007L410.864 405.48ZM408.704 423.48L407.384 421.978L406.629 422.641L406.711 423.643L408.704 423.48ZM411.664 432.28L409.99 433.374L409.995 433.382L410 433.389L411.664 432.28ZM423.344 432.36L425.079 433.356L425.083 433.348L425.088 433.341L423.344 432.36ZM425.504 420.52L423.532 420.191L423.504 420.354V420.52H425.504ZM405.504 407.56L403.904 408.76L403.917 408.776L403.929 408.793L405.504 407.56ZM394.304 410.36L392.636 409.257L392.629 409.267L392.623 409.277L394.304 410.36ZM391.264 426.52H389.264V428.74L391.473 428.509L391.264 426.52ZM402.544 421.8L403.89 423.28L403.897 423.273L403.904 423.267L402.544 421.8ZM391.264 397.96H389.264V403.819L392.847 399.183L391.264 397.96ZM391.744 381.32L389.761 381.061L389.761 381.061L391.744 381.32ZM426.704 422.04C426.392 422.04 426.106 421.902 425.933 421.732C425.809 421.61 425.827 421.555 425.891 421.743C426.023 422.132 426.144 422.926 426.144 424.28H430.144C430.144 422.807 430.026 421.481 429.678 420.457C429.342 419.468 428.491 418.04 426.704 418.04V422.04ZM426.144 424.28C426.144 428.405 425.202 431.556 423.49 433.9L426.719 436.26C429.06 433.057 430.144 429.008 430.144 424.28H426.144ZM423.49 433.9C421.857 436.134 419.67 437.24 416.704 437.24V441.24C420.886 441.24 424.298 439.573 426.719 436.26L423.49 433.9ZM416.704 437.24C413.616 437.24 411.071 436.244 408.951 434.26L406.218 437.18C409.111 439.889 412.646 441.24 416.704 441.24V437.24ZM408.968 434.275C406.757 432.159 405.39 429.651 404.829 426.706L400.9 427.454C401.619 431.229 403.399 434.481 406.201 437.165L408.968 434.275ZM402.093 425.235C398.748 426.633 395.109 427.44 391.162 427.643L391.367 431.637C395.739 431.413 399.834 430.514 403.636 428.925L402.093 425.235ZM389.264 429.64V438.12H393.264V429.64H389.264ZM389.637 436.958C389.629 436.969 389.462 437.24 388.464 437.24V441.24C390.134 441.24 391.833 440.764 392.892 439.282L389.637 436.958ZM388.464 437.24C387.56 437.24 387.037 436.984 386.679 436.626L383.85 439.454C385.092 440.696 386.703 441.24 388.464 441.24V437.24ZM386.723 436.672C386.382 436.308 386.064 435.641 386.064 434.36H382.064C382.064 436.279 382.547 438.066 383.805 439.408L386.723 436.672ZM386.064 434.36V394.28H382.064V434.36H386.064ZM386.064 394.28C386.064 387.391 386.739 382.728 387.901 380.032L384.228 378.448C382.723 381.939 382.064 387.302 382.064 394.28H386.064ZM387.906 380.02C388.433 378.775 389.153 377.944 390.032 377.404C390.924 376.855 392.125 376.52 393.744 376.52V372.52C391.577 372.52 389.605 372.971 387.937 373.996C386.255 375.03 385.029 376.558 384.223 378.46L387.906 380.02ZM393.744 376.52C395.091 376.52 396.039 377.029 396.792 378.177L400.136 375.983C398.65 373.718 396.451 372.52 393.744 372.52V376.52ZM396.792 378.177C397.612 379.426 398.144 381.408 398.144 384.36H402.144C402.144 381.019 401.557 378.147 400.136 375.983L396.792 378.177ZM398.144 384.36C398.144 389.332 395.57 394.666 389.85 400.386L392.679 403.214C398.799 397.094 402.144 390.801 402.144 384.36H398.144ZM389.264 401.8V409.48H393.264V401.8H389.264ZM393.023 410.433C394.071 408.5 395.385 407.131 396.943 406.233C398.506 405.332 400.428 404.84 402.784 404.84V400.84C399.861 400.84 397.223 401.455 394.946 402.767C392.663 404.083 390.858 406.034 389.506 408.527L393.023 410.433ZM402.784 404.84C405.788 404.84 407.975 405.62 409.553 406.99L412.176 403.97C409.701 401.82 406.501 400.84 402.784 400.84V404.84ZM409.572 407.007C411.148 408.34 411.984 410.152 411.984 412.68H415.984C415.984 409.128 414.741 406.14 412.156 403.953L409.572 407.007ZM411.984 412.68C411.984 416.127 410.54 419.205 407.384 421.978L410.025 424.982C413.909 421.569 415.984 417.446 415.984 412.68H411.984ZM406.711 423.643C407.004 427.213 408.093 430.469 409.99 433.374L413.339 431.186C411.823 428.865 410.938 426.254 410.698 423.317L406.711 423.643ZM410 433.389C412.002 436.392 414.736 438.12 418.144 438.12V434.12C416.326 434.12 414.74 433.288 413.328 431.171L410 433.389ZM418.144 438.12C421.172 438.12 423.451 436.19 425.079 433.356L421.61 431.364C420.358 433.544 419.171 434.12 418.144 434.12V438.12ZM425.088 433.341C426.783 430.326 427.504 425.958 427.504 420.52H423.504C423.504 425.749 422.785 429.274 421.601 431.379L425.088 433.341ZM427.477 420.849C427.424 421.168 427.274 421.46 427.063 421.683C426.87 421.888 426.678 421.981 426.587 422.017C426.438 422.077 426.427 422.04 426.704 422.04V418.04C426.235 418.04 425.65 418.083 425.102 418.303C424.493 418.546 423.71 419.12 423.532 420.191L427.477 420.849ZM408.944 412.76C408.944 410.263 408.413 408.031 407.079 406.327L403.929 408.793C404.516 409.542 404.944 410.777 404.944 412.76H408.944ZM407.104 406.36C405.798 404.618 403.998 403.64 401.824 403.64V407.64C402.638 407.64 403.291 407.942 403.904 408.76L407.104 406.36ZM401.824 403.64C398.029 403.64 394.967 405.73 392.636 409.257L395.973 411.463C397.802 408.696 399.753 407.64 401.824 407.64V403.64ZM392.623 409.277C390.263 412.94 389.264 418.835 389.264 426.52H393.264C393.264 418.952 394.292 414.073 395.986 411.443L392.623 409.277ZM391.473 428.509C396.411 427.992 400.592 426.278 403.89 423.28L401.199 420.32C398.63 422.655 395.291 424.088 391.056 424.531L391.473 428.509ZM403.904 423.267C407.153 420.254 408.944 416.738 408.944 412.76H404.944C404.944 415.395 403.802 417.906 401.184 420.333L403.904 423.267ZM392.847 399.183C396.653 394.258 398.704 389.279 398.704 384.28H394.704C394.704 388.135 393.129 392.276 389.682 396.737L392.847 399.183ZM398.704 384.28C398.704 381.983 398.465 379.992 397.819 378.504C397.487 377.738 397.006 377.01 396.303 376.469C395.573 375.908 394.718 375.64 393.824 375.64V379.64C393.87 379.64 393.882 379.646 393.874 379.643C393.864 379.64 393.859 379.636 393.866 379.641C393.883 379.654 394.002 379.755 394.15 380.096C394.464 380.821 394.704 382.15 394.704 384.28H398.704ZM393.824 375.64C392.339 375.64 391.334 376.566 390.763 377.576C390.228 378.522 389.933 379.743 389.761 381.061L393.728 381.579C393.876 380.444 394.087 379.825 394.246 379.544C394.316 379.42 394.328 379.448 394.238 379.511C394.124 379.59 393.969 379.64 393.824 379.64V375.64ZM389.761 381.061C389.421 383.669 389.264 389.356 389.264 397.96H393.264C393.264 389.284 393.428 383.877 393.728 381.579L389.761 381.061ZM449.463 405.16L448.049 406.574L450.101 408.626L451.288 405.978L449.463 405.16ZM456.183 403.96H458.183V403.132L457.597 402.546L456.183 403.96ZM457.623 433.8L459.322 432.745L459.322 432.745L457.623 433.8ZM469.063 420.52L467.09 420.191L467.063 420.354V420.52H469.063ZM468.743 435.16L467.124 433.986L467.117 433.996L467.109 434.007L468.743 435.16ZM449.863 432.12L451.738 431.425L450.068 426.921L448.049 431.279L449.863 432.12ZM445.703 437.32L444.527 435.703L444.527 435.703L445.703 437.32ZM430.023 407.24L428.609 405.826L428.602 405.832L428.596 405.839L430.023 407.24ZM434.423 430.76L436.329 430.154L436.329 430.154L434.423 430.76ZM436.983 435.24L435.874 436.904L435.907 436.926L435.94 436.947L436.983 435.24ZM446.023 433.16L444.571 431.785L444.57 431.786L446.023 433.16ZM446.903 408.28L445.362 409.555L445.375 409.571L445.388 409.586L446.903 408.28ZM438.663 406.44L439.296 408.337L439.296 408.337L438.663 406.44ZM435.943 408.44L437.417 409.791L437.446 409.76L437.473 409.728L435.943 408.44ZM451.288 405.978C451.527 405.446 451.772 405.185 451.958 405.053C452.129 404.932 452.36 404.84 452.743 404.84V400.84C451.632 400.84 450.571 401.134 449.648 401.787C448.741 402.429 448.093 403.327 447.638 404.342L451.288 405.978ZM452.743 404.84C454.005 404.84 454.541 405.147 454.769 405.374L457.597 402.546C456.332 401.28 454.574 400.84 452.743 400.84V404.84ZM454.183 403.96V426.92H458.183V403.96H454.183ZM454.183 426.92C454.183 430.11 454.676 432.844 455.924 434.855L459.322 432.745C458.65 431.662 458.183 429.81 458.183 426.92H454.183ZM455.924 434.855C457.205 436.918 459.118 438.12 461.543 438.12V434.12C460.661 434.12 459.962 433.775 459.322 432.745L455.924 434.855ZM461.543 438.12C463.162 438.12 464.664 437.694 465.971 436.79C467.261 435.898 468.247 434.62 468.985 433.088C470.435 430.08 471.063 425.817 471.063 420.52H467.063C467.063 425.623 466.438 429.16 465.382 431.352C464.866 432.42 464.285 433.092 463.696 433.5C463.122 433.896 462.431 434.12 461.543 434.12V438.12ZM471.036 420.849C470.983 421.168 470.833 421.46 470.622 421.683C470.429 421.888 470.237 421.981 470.146 422.017C469.997 422.077 469.985 422.04 470.263 422.04V418.04C469.794 418.04 469.209 418.083 468.66 418.303C468.052 418.546 467.269 419.12 467.09 420.191L471.036 420.849ZM470.263 422.04C469.95 422.04 469.665 421.902 469.492 421.732C469.368 421.61 469.386 421.555 469.449 421.743C469.582 422.132 469.703 422.926 469.703 424.28H473.703C473.703 422.807 473.585 421.481 473.237 420.457C472.901 419.468 472.05 418.04 470.263 418.04V422.04ZM469.703 424.28C469.703 428.537 468.776 431.708 467.124 433.986L470.362 436.334C472.656 433.172 473.703 429.09 473.703 424.28H469.703ZM467.109 434.007C465.589 436.161 463.497 437.24 460.583 437.24V441.24C464.709 441.24 468.058 439.599 470.377 436.313L467.109 434.007ZM460.583 437.24C458.183 437.24 456.354 436.713 454.97 435.794C453.596 434.881 452.499 433.475 451.738 431.425L447.988 432.815C448.988 435.512 450.557 437.665 452.757 439.126C454.946 440.58 457.597 441.24 460.583 441.24V437.24ZM448.049 431.279C447.163 433.191 445.983 434.644 444.527 435.703L446.879 438.937C448.944 437.436 450.537 435.423 451.678 432.961L448.049 431.279ZM444.527 435.703C443.119 436.726 441.534 437.24 439.703 437.24V441.24C442.353 441.24 444.767 440.474 446.879 438.937L444.527 435.703ZM439.703 437.24C435.511 437.24 432.665 435.896 430.792 433.446C428.842 430.893 427.703 426.828 427.703 420.92H423.703C423.703 427.225 424.898 432.32 427.614 435.874C430.408 439.53 434.562 441.24 439.703 441.24V437.24ZM427.703 420.92C427.703 414.997 429.087 411.049 431.45 408.641L428.596 405.839C425.2 409.298 423.703 414.47 423.703 420.92H427.703ZM431.437 408.654C433.936 406.155 437.263 404.84 441.623 404.84V400.84C436.383 400.84 431.977 402.458 428.609 405.826L431.437 408.654ZM441.623 404.84C445.114 404.84 447.064 405.589 448.049 406.574L450.877 403.746C448.769 401.637 445.493 400.84 441.623 400.84V404.84ZM432.517 431.366C432.917 432.622 433.367 433.723 433.887 434.632C434.398 435.527 435.04 436.348 435.874 436.904L438.093 433.576C437.966 433.492 437.702 433.246 437.36 432.648C437.026 432.063 436.676 431.245 436.329 430.154L432.517 431.366ZM435.94 436.947C437.32 437.79 439.003 438.12 440.823 438.12V434.12C439.444 434.12 438.566 433.864 438.026 433.533L435.94 436.947ZM440.823 438.12C443.253 438.12 445.481 436.644 447.476 434.534L444.57 431.786C442.832 433.623 441.594 434.12 440.823 434.12V438.12ZM447.475 434.535C449.799 432.083 450.903 428.951 450.903 425.32H446.903C446.903 428.089 446.088 430.184 444.571 431.785L447.475 434.535ZM450.903 425.32V414.36H446.903V425.32H450.903ZM450.903 414.36C450.903 411.487 450.131 408.961 448.418 406.974L445.388 409.586C446.342 410.692 446.903 412.219 446.903 414.36H450.903ZM448.444 407.005C446.874 405.107 444.88 403.96 442.503 403.96V407.96C443.433 407.96 444.373 408.359 445.362 409.555L448.444 407.005ZM442.503 403.96C440.798 403.96 439.278 404.127 438.031 404.543L439.296 408.337C439.969 408.113 441.008 407.96 442.503 407.96V403.96ZM438.031 404.543C436.629 405.01 435.432 405.942 434.413 407.152L437.473 409.728C438.161 408.912 438.778 408.51 439.296 408.337L438.031 404.543ZM434.469 407.089C433.239 408.43 432.478 410.354 432.006 412.586C431.527 414.852 431.303 417.643 431.303 420.92H435.303C435.303 417.797 435.519 415.308 435.92 413.414C436.328 411.485 436.887 410.37 437.417 409.791L434.469 407.089ZM431.303 420.92C431.303 425.215 431.679 428.733 432.517 431.366L436.329 430.154C435.674 428.094 435.303 425.052 435.303 420.92H431.303Z" fill="black"/>
<defs>
<linearGradient id="paint0_linear" x1="194.552" y1="130" x2="210" y2="387" gradientUnits="userSpaceOnUse">
<stop stop-color="white"/>
<stop offset="1" stop-color="white" stop-opacity="0"/>
</linearGradient>
</defs>
</svg>
